<?xml version="1.0" encoding="utf-8" standalone="no"?>
<!DOCTYPE svg PUBLIC "-//W3C//DTD SVG 1.1//EN"
  "http://www.w3.org/Graphics/SVG/1.1/DTD/svg11.dtd">
<!-- Created with matplotlib (http://matplotlib.org/) -->
<svg height="432pt" version="1.1" viewBox="0 0 432 432" width="432pt" xmlns="http://www.w3.org/2000/svg" xmlns:xlink="http://www.w3.org/1999/xlink">
 <defs>
  <style type="text/css">
*{stroke-linecap:butt;stroke-linejoin:round;}
  </style>
 </defs>
 <g id="figure_1">
  <g id="patch_1">
   <path d="M 0 432 
L 432 432 
L 432 0 
L 0 0 
z
" style="fill:#ffffff;"/>
  </g>
  <g id="axes_1">
   <g id="patch_2">
    <path d="M 50.078 126.413333 
L 418.68 126.413333 
L 418.68 13.32 
L 50.078 13.32 
z
" style="fill:#ffffff;"/>
   </g>
   <g id="matplotlib.axis_1">
    <g id="xtick_1">
     <g id="line2d_1">
      <path clip-path="url(#p72ffa84469)" d="M 66.405441 126.413333 
L 66.405441 13.32 
" style="fill:none;stroke:#08bdf9;stroke-dasharray:2.2,2.2;stroke-dashoffset:0;stroke-width:0.8;"/>
     </g>
     <g id="line2d_2">
      <defs>
       <path d="M 0 0 
L 0 3.5 
" id="m3f753e4934" style="stroke:#01769d;stroke-width:0.8;"/>
      </defs>
      <g>
       <use style="fill:#01769d;stroke:#01769d;stroke-width:0.8;" x="66.405441" xlink:href="#m3f753e4934" y="126.413333"/>
      </g>
     </g>
    </g>
    <g id="xtick_2">
     <g id="line2d_3">
      <path clip-path="url(#p72ffa84469)" d="M 108.354722 126.413333 
L 108.354722 13.32 
" style="fill:none;stroke:#08bdf9;stroke-dasharray:2.2,2.2;stroke-dashoffset:0;stroke-width:0.8;"/>
     </g>
     <g id="line2d_4">
      <g>
       <use style="fill:#01769d;stroke:#01769d;stroke-width:0.8;" x="108.354722" xlink:href="#m3f753e4934" y="126.413333"/>
      </g>
     </g>
    </g>
    <g id="xtick_3">
     <g id="line2d_5">
      <path clip-path="url(#p72ffa84469)" d="M 150.304004 126.413333 
L 150.304004 13.32 
" style="fill:none;stroke:#08bdf9;stroke-dasharray:2.2,2.2;stroke-dashoffset:0;stroke-width:0.8;"/>
     </g>
     <g id="line2d_6">
      <g>
       <use style="fill:#01769d;stroke:#01769d;stroke-width:0.8;" x="150.304004" xlink:href="#m3f753e4934" y="126.413333"/>
      </g>
     </g>
    </g>
    <g id="xtick_4">
     <g id="line2d_7">
      <path clip-path="url(#p72ffa84469)" d="M 192.253286 126.413333 
L 192.253286 13.32 
" style="fill:none;stroke:#08bdf9;stroke-dasharray:2.2,2.2;stroke-dashoffset:0;stroke-width:0.8;"/>
     </g>
     <g id="line2d_8">
      <g>
       <use style="fill:#01769d;stroke:#01769d;stroke-width:0.8;" x="192.253286" xlink:href="#m3f753e4934" y="126.413333"/>
      </g>
     </g>
    </g>
    <g id="xtick_5">
     <g id="line2d_9">
      <path clip-path="url(#p72ffa84469)" d="M 234.202568 126.413333 
L 234.202568 13.32 
" style="fill:none;stroke:#08bdf9;stroke-dasharray:2.2,2.2;stroke-dashoffset:0;stroke-width:0.8;"/>
     </g>
     <g id="line2d_10">
      <g>
       <use style="fill:#01769d;stroke:#01769d;stroke-width:0.8;" x="234.202568" xlink:href="#m3f753e4934" y="126.413333"/>
      </g>
     </g>
    </g>
    <g id="xtick_6">
     <g id="line2d_11">
      <path clip-path="url(#p72ffa84469)" d="M 276.15185 126.413333 
L 276.15185 13.32 
" style="fill:none;stroke:#08bdf9;stroke-dasharray:2.2,2.2;stroke-dashoffset:0;stroke-width:0.8;"/>
     </g>
     <g id="line2d_12">
      <g>
       <use style="fill:#01769d;stroke:#01769d;stroke-width:0.8;" x="276.15185" xlink:href="#m3f753e4934" y="126.413333"/>
      </g>
     </g>
    </g>
    <g id="xtick_7">
     <g id="line2d_13">
      <path clip-path="url(#p72ffa84469)" d="M 318.101132 126.413333 
L 318.101132 13.32 
" style="fill:none;stroke:#08bdf9;stroke-dasharray:2.2,2.2;stroke-dashoffset:0;stroke-width:0.8;"/>
     </g>
     <g id="line2d_14">
      <g>
       <use style="fill:#01769d;stroke:#01769d;stroke-width:0.8;" x="318.101132" xlink:href="#m3f753e4934" y="126.413333"/>
      </g>
     </g>
    </g>
    <g id="xtick_8">
     <g id="line2d_15">
      <path clip-path="url(#p72ffa84469)" d="M 360.050413 126.413333 
L 360.050413 13.32 
" style="fill:none;stroke:#08bdf9;stroke-dasharray:2.2,2.2;stroke-dashoffset:0;stroke-width:0.8;"/>
     </g>
     <g id="line2d_16">
      <g>
       <use style="fill:#01769d;stroke:#01769d;stroke-width:0.8;" x="360.050413" xlink:href="#m3f753e4934" y="126.413333"/>
      </g>
     </g>
    </g>
    <g id="xtick_9">
     <g id="line2d_17">
      <path clip-path="url(#p72ffa84469)" d="M 401.999695 126.413333 
L 401.999695 13.32 
" style="fill:none;stroke:#08bdf9;stroke-dasharray:2.2,2.2;stroke-dashoffset:0;stroke-width:0.8;"/>
     </g>
     <g id="line2d_18">
      <g>
       <use style="fill:#01769d;stroke:#01769d;stroke-width:0.8;" x="401.999695" xlink:href="#m3f753e4934" y="126.413333"/>
      </g>
     </g>
    </g>
   </g>
   <g id="matplotlib.axis_2">
    <g id="ytick_1">
     <g id="line2d_19">
      <path clip-path="url(#p72ffa84469)" d="M 50.078 110.257143 
L 418.68 110.257143 
" style="fill:none;stroke:#08bdf9;stroke-dasharray:2.2,2.2;stroke-dashoffset:0;stroke-width:0.8;"/>
     </g>
     <g id="line2d_20">
      <defs>
       <path d="M 0 0 
L -3.5 0 
" id="m30fca2d5de" style="stroke:#01769d;stroke-width:0.8;"/>
      </defs>
      <g>
       <use style="fill:#01769d;stroke:#01769d;stroke-width:0.8;" x="50.078" xlink:href="#m30fca2d5de" y="110.257143"/>
      </g>
     </g>
     <g id="text_1">
      <!-- 0 -->
      <defs>
       <path d="M 31.78125 66.40625 
Q 24.171875 66.40625 20.328125 58.90625 
Q 16.5 51.421875 16.5 36.375 
Q 16.5 21.390625 20.328125 13.890625 
Q 24.171875 6.390625 31.78125 6.390625 
Q 39.453125 6.390625 43.28125 13.890625 
Q 47.125 21.390625 47.125 36.375 
Q 47.125 51.421875 43.28125 58.90625 
Q 39.453125 66.40625 31.78125 66.40625 
M 31.78125 74.21875 
Q 44.046875 74.21875 50.515625 64.515625 
Q 56.984375 54.828125 56.984375 36.375 
Q 56.984375 17.96875 50.515625 8.265625 
Q 44.046875 -1.421875 31.78125 -1.421875 
Q 19.53125 -1.421875 13.0625 8.265625 
Q 6.59375 17.96875 6.59375 36.375 
Q 6.59375 54.828125 13.0625 64.515625 
Q 19.53125 74.21875 31.78125 74.21875 
" id="DejaVuSans-30"/>
      </defs>
      <g style="fill:#01769d;" transform="translate(36.7155 114.056362)scale(0.1 -0.1)">
       <use xlink:href="#DejaVuSans-30"/>
      </g>
     </g>
    </g>
    <g id="ytick_2">
     <g id="line2d_21">
      <path clip-path="url(#p72ffa84469)" d="M 50.078 83.330159 
L 418.68 83.330159 
" style="fill:none;stroke:#08bdf9;stroke-dasharray:2.2,2.2;stroke-dashoffset:0;stroke-width:0.8;"/>
     </g>
     <g id="line2d_22">
      <g>
       <use style="fill:#01769d;stroke:#01769d;stroke-width:0.8;" x="50.078" xlink:href="#m30fca2d5de" y="83.330159"/>
      </g>
     </g>
     <g id="text_2">
      <!-- 1 -->
      <defs>
       <path d="M 12.40625 8.296875 
L 28.515625 8.296875 
L 28.515625 63.921875 
L 10.984375 60.40625 
L 10.984375 69.390625 
L 28.421875 72.90625 
L 38.28125 72.90625 
L 38.28125 8.296875 
L 54.390625 8.296875 
L 54.390625 0 
L 12.40625 0 
z
" id="DejaVuSans-31"/>
      </defs>
      <g style="fill:#01769d;" transform="translate(36.7155 87.129377)scale(0.1 -0.1)">
       <use xlink:href="#DejaVuSans-31"/>
      </g>
     </g>
    </g>
    <g id="ytick_3">
     <g id="line2d_23">
      <path clip-path="url(#p72ffa84469)" d="M 50.078 56.403175 
L 418.68 56.403175 
" style="fill:none;stroke:#08bdf9;stroke-dasharray:2.2,2.2;stroke-dashoffset:0;stroke-width:0.8;"/>
     </g>
     <g id="line2d_24">
      <g>
       <use style="fill:#01769d;stroke:#01769d;stroke-width:0.8;" x="50.078" xlink:href="#m30fca2d5de" y="56.403175"/>
      </g>
     </g>
     <g id="text_3">
      <!-- 2 -->
      <defs>
       <path d="M 19.1875 8.296875 
L 53.609375 8.296875 
L 53.609375 0 
L 7.328125 0 
L 7.328125 8.296875 
Q 12.9375 14.109375 22.625 23.890625 
Q 32.328125 33.6875 34.8125 36.53125 
Q 39.546875 41.84375 41.421875 45.53125 
Q 43.3125 49.21875 43.3125 52.78125 
Q 43.3125 58.59375 39.234375 62.25 
Q 35.15625 65.921875 28.609375 65.921875 
Q 23.96875 65.921875 18.8125 64.3125 
Q 13.671875 62.703125 7.8125 59.421875 
L 7.8125 69.390625 
Q 13.765625 71.78125 18.9375 73 
Q 24.125 74.21875 28.421875 74.21875 
Q 39.75 74.21875 46.484375 68.546875 
Q 53.21875 62.890625 53.21875 53.421875 
Q 53.21875 48.921875 51.53125 44.890625 
Q 49.859375 40.875 45.40625 35.40625 
Q 44.1875 33.984375 37.640625 27.21875 
Q 31.109375 20.453125 19.1875 8.296875 
" id="DejaVuSans-32"/>
      </defs>
      <g style="fill:#01769d;" transform="translate(36.7155 60.202393)scale(0.1 -0.1)">
       <use xlink:href="#DejaVuSans-32"/>
      </g>
     </g>
    </g>
    <g id="ytick_4">
     <g id="line2d_25">
      <path clip-path="url(#p72ffa84469)" d="M 50.078 29.47619 
L 418.68 29.47619 
" style="fill:none;stroke:#08bdf9;stroke-dasharray:2.2,2.2;stroke-dashoffset:0;stroke-width:0.8;"/>
     </g>
     <g id="line2d_26">
      <g>
       <use style="fill:#01769d;stroke:#01769d;stroke-width:0.8;" x="50.078" xlink:href="#m30fca2d5de" y="29.47619"/>
      </g>
     </g>
     <g id="text_4">
      <!-- 3 -->
      <defs>
       <path d="M 40.578125 39.3125 
Q 47.65625 37.796875 51.625 33 
Q 55.609375 28.21875 55.609375 21.1875 
Q 55.609375 10.40625 48.1875 4.484375 
Q 40.765625 -1.421875 27.09375 -1.421875 
Q 22.515625 -1.421875 17.65625 -0.515625 
Q 12.796875 0.390625 7.625 2.203125 
L 7.625 11.71875 
Q 11.71875 9.328125 16.59375 8.109375 
Q 21.484375 6.890625 26.8125 6.890625 
Q 36.078125 6.890625 40.9375 10.546875 
Q 45.796875 14.203125 45.796875 21.1875 
Q 45.796875 27.640625 41.28125 31.265625 
Q 36.765625 34.90625 28.71875 34.90625 
L 20.21875 34.90625 
L 20.21875 43.015625 
L 29.109375 43.015625 
Q 36.375 43.015625 40.234375 45.921875 
Q 44.09375 48.828125 44.09375 54.296875 
Q 44.09375 59.90625 40.109375 62.90625 
Q 36.140625 65.921875 28.71875 65.921875 
Q 24.65625 65.921875 20.015625 65.03125 
Q 15.375 64.15625 9.8125 62.3125 
L 9.8125 71.09375 
Q 15.4375 72.65625 20.34375 73.4375 
Q 25.25 74.21875 29.59375 74.21875 
Q 40.828125 74.21875 47.359375 69.109375 
Q 53.90625 64.015625 53.90625 55.328125 
Q 53.90625 49.265625 50.4375 45.09375 
Q 46.96875 40.921875 40.578125 39.3125 
" id="DejaVuSans-33"/>
      </defs>
      <g style="fill:#01769d;" transform="translate(36.7155 33.275409)scale(0.1 -0.1)">
       <use xlink:href="#DejaVuSans-33"/>
      </g>
     </g>
    </g>
    <g id="text_5">
     <!-- $V_{gate}\;(V)$ -->
     <defs>
      <path d="M 20.609375 0 
L 7.8125 72.90625 
L 17.484375 72.90625 
L 28.078125 10.203125 
L 63.484375 72.90625 
L 74.21875 72.90625 
L 32.078125 0 
z
" id="DejaVuSans-Oblique-56"/>
      <path d="M 59.625 54.6875 
L 50.296875 6.78125 
Q 47.609375 -7.125 40.015625 -13.953125 
Q 32.421875 -20.796875 19.578125 -20.796875 
Q 14.84375 -20.796875 10.78125 -20.09375 
Q 6.734375 -19.390625 3.21875 -17.921875 
L 4.890625 -9.1875 
Q 8.203125 -11.328125 11.90625 -12.34375 
Q 15.625 -13.375 19.828125 -13.375 
Q 28.375 -13.375 33.859375 -8.703125 
Q 39.359375 -4.046875 41.109375 4.6875 
L 41.890625 8.796875 
Q 38.140625 4.5 33.15625 2.25 
Q 28.171875 0 22.40625 0 
Q 14.109375 0 9.34375 5.484375 
Q 4.59375 10.984375 4.59375 20.609375 
Q 4.59375 28.171875 7.46875 35.421875 
Q 10.359375 42.671875 15.578125 48.296875 
Q 19.046875 52 23.65625 54 
Q 28.265625 56 33.296875 56 
Q 38.8125 56 42.90625 53.4375 
Q 47.015625 50.875 49.03125 46.1875 
L 50.59375 54.6875 
z
M 46.09375 34.625 
Q 46.09375 41.265625 42.96875 44.875 
Q 39.84375 48.484375 34.078125 48.484375 
Q 30.515625 48.484375 27.296875 47.0625 
Q 24.078125 45.65625 21.78125 43.109375 
Q 18.0625 38.921875 15.984375 33.234375 
Q 13.921875 27.546875 13.921875 21.484375 
Q 13.921875 14.75 17.0625 11.125 
Q 20.21875 7.515625 26.125 7.515625 
Q 34.671875 7.515625 40.375 15.25 
Q 46.09375 23 46.09375 34.625 
" id="DejaVuSans-Oblique-67"/>
      <path d="M 53.71875 31.203125 
L 47.609375 0 
L 38.625 0 
L 40.28125 8.296875 
Q 36.328125 3.421875 31.265625 1 
Q 26.21875 -1.421875 20.015625 -1.421875 
Q 13.03125 -1.421875 8.5625 2.84375 
Q 4.109375 7.125 4.109375 13.8125 
Q 4.109375 23.390625 11.75 28.953125 
Q 19.390625 34.515625 32.8125 34.515625 
L 45.3125 34.515625 
L 45.796875 36.921875 
Q 45.90625 37.3125 45.953125 37.765625 
Q 46 38.234375 46 39.203125 
Q 46 43.5625 42.453125 45.96875 
Q 38.921875 48.390625 32.515625 48.390625 
Q 28.125 48.390625 23.5 47.265625 
Q 18.890625 46.140625 14.015625 43.890625 
L 15.578125 52.203125 
Q 20.65625 54.109375 25.515625 55.046875 
Q 30.375 56 34.90625 56 
Q 44.578125 56 49.625 51.796875 
Q 54.6875 47.609375 54.6875 39.59375 
Q 54.6875 37.984375 54.4375 35.8125 
Q 54.203125 33.640625 53.71875 31.203125 
M 44 27.484375 
L 35.015625 27.484375 
Q 23.96875 27.484375 18.671875 24.53125 
Q 13.375 21.578125 13.375 15.375 
Q 13.375 11.078125 16.078125 8.640625 
Q 18.796875 6.203125 23.578125 6.203125 
Q 30.90625 6.203125 36.375 11.453125 
Q 41.84375 16.703125 43.609375 25.484375 
z
" id="DejaVuSans-Oblique-61"/>
      <path d="M 42.28125 54.6875 
L 40.921875 47.703125 
L 23 47.703125 
L 17.1875 18.015625 
Q 16.890625 16.359375 16.75 15.234375 
Q 16.609375 14.109375 16.609375 13.484375 
Q 16.609375 10.359375 18.484375 8.9375 
Q 20.359375 7.515625 24.515625 7.515625 
L 33.59375 7.515625 
L 32.078125 0 
L 23.484375 0 
Q 15.484375 0 11.546875 3.125 
Q 7.625 6.25 7.625 12.59375 
Q 7.625 13.71875 7.765625 15.0625 
Q 7.90625 16.40625 8.203125 18.015625 
L 14.015625 47.703125 
L 6.390625 47.703125 
L 7.8125 54.6875 
L 15.28125 54.6875 
L 18.3125 70.21875 
L 27.296875 70.21875 
L 24.3125 54.6875 
z
" id="DejaVuSans-Oblique-74"/>
      <path d="M 48.09375 32.234375 
Q 48.25 33.015625 48.3125 33.84375 
Q 48.390625 34.671875 48.390625 35.5 
Q 48.390625 41.453125 44.890625 44.921875 
Q 41.40625 48.390625 35.40625 48.390625 
Q 28.71875 48.390625 23.578125 44.15625 
Q 18.453125 39.9375 15.828125 32.171875 
z
M 55.90625 25.203125 
L 14.109375 25.203125 
Q 13.8125 23.34375 13.71875 22.265625 
Q 13.625 21.1875 13.625 20.40625 
Q 13.625 13.625 17.796875 9.90625 
Q 21.96875 6.203125 29.59375 6.203125 
Q 35.453125 6.203125 40.671875 7.515625 
Q 45.90625 8.84375 50.390625 11.375 
L 48.6875 2.484375 
Q 43.84375 0.53125 38.6875 -0.4375 
Q 33.546875 -1.421875 28.21875 -1.421875 
Q 16.84375 -1.421875 10.71875 4.015625 
Q 4.59375 9.46875 4.59375 19.484375 
Q 4.59375 28.03125 7.640625 35.375 
Q 10.6875 42.71875 16.609375 48.484375 
Q 20.40625 52.09375 25.65625 54.046875 
Q 30.90625 56 36.8125 56 
Q 46.09375 56 51.578125 50.4375 
Q 57.078125 44.875 57.078125 35.5 
Q 57.078125 33.25 56.78125 30.6875 
Q 56.5 28.125 55.90625 25.203125 
" id="DejaVuSans-Oblique-65"/>
      <path d="M 31 75.875 
Q 24.46875 64.65625 21.28125 53.65625 
Q 18.109375 42.671875 18.109375 31.390625 
Q 18.109375 20.125 21.3125 9.0625 
Q 24.515625 -2 31 -13.1875 
L 23.1875 -13.1875 
Q 15.875 -1.703125 12.234375 9.375 
Q 8.59375 20.453125 8.59375 31.390625 
Q 8.59375 42.28125 12.203125 53.3125 
Q 15.828125 64.359375 23.1875 75.875 
z
" id="DejaVuSans-28"/>
      <path d="M 8.015625 75.875 
L 15.828125 75.875 
Q 23.140625 64.359375 26.78125 53.3125 
Q 30.421875 42.28125 30.421875 31.390625 
Q 30.421875 20.453125 26.78125 9.375 
Q 23.140625 -1.703125 15.828125 -13.1875 
L 8.015625 -13.1875 
Q 14.5 -2 17.703125 9.0625 
Q 20.90625 20.125 20.90625 31.390625 
Q 20.90625 42.671875 17.703125 53.65625 
Q 14.5 64.65625 8.015625 75.875 
" id="DejaVuSans-29"/>
     </defs>
     <g style="fill:#01769d;" transform="translate(29.6155 90.016667)rotate(-90)scale(0.1 -0.1)">
      <use transform="translate(0 0.125)" xlink:href="#DejaVuSans-Oblique-56"/>
      <use transform="translate(68.408203 -16.28125)scale(0.7)" xlink:href="#DejaVuSans-Oblique-67"/>
      <use transform="translate(112.841797 -16.28125)scale(0.7)" xlink:href="#DejaVuSans-Oblique-61"/>
      <use transform="translate(155.737305 -16.28125)scale(0.7)" xlink:href="#DejaVuSans-Oblique-74"/>
      <use transform="translate(183.183594 -16.28125)scale(0.7)" xlink:href="#DejaVuSans-Oblique-65"/>
      <use transform="translate(256.043511 0.125)" xlink:href="#DejaVuSans-28"/>
      <use transform="translate(295.057183 0.125)" xlink:href="#DejaVuSans-Oblique-56"/>
      <use transform="translate(363.465386 0.125)" xlink:href="#DejaVuSans-29"/>
     </g>
    </g>
   </g>
   <g id="line2d_27">
    <path clip-path="url(#p72ffa84469)" d="M 66.832636 110.329095 
L 72.910763 110.135148 
L 83.234219 110.257687 
L 88.395947 110.181594 
L 99.126662 110.238805 
L 105.435441 110.228112 
L 113.798296 110.247159 
L 122.364245 110.250355 
L 133.655981 110.230391 
L 150.404201 110.201247 
L 150.446201 108.985396 
L 150.852353 91.371787 
L 151.222896 80.725538 
L 151.386691 79.107254 
L 151.583212 78.868869 
L 153.40109 79.484528 
L 154.54814 79.376281 
L 156.268716 78.852336 
L 156.842242 78.533655 
L 157.049663 78.113029 
L 157.411335 76.15821 
L 159.16567 65.176121 
L 160.81521 56.702872 
L 161.96226 51.79481 
L 163.109311 47.574867 
L 164.256362 43.944221 
L 165.403412 40.819102 
L 166.550463 38.128315 
L 168.271039 34.775825 
L 169.991615 32.095809 
L 171.712191 29.95304 
L 173.432767 28.239623 
L 175.153343 26.86947 
L 176.873919 25.773757 
L 178.594495 24.897499 
L 180.888596 23.995849 
L 183.182698 23.326498 
L 186.050324 22.726861 
L 189.491476 22.247965 
L 194.079679 21.866409 
L 200.388458 21.604464 
L 210.138389 21.456258 
L 232.505877 21.401273 
L 234.226523 21.510246 
L 234.302015 24.475499 
L 234.447327 26.206878 
L 234.90282 31.179726 
L 236.059913 42.139924 
L 237.206963 51.544093 
L 238.354014 59.676311 
L 239.501065 66.677892 
L 240.648115 72.65641 
L 241.795166 77.559114 
L 242.368691 79.472599 
L 242.803205 80.473771 
L 243.197338 80.879507 
L 244.087126 80.979245 
L 247.416522 81.220672 
L 249.710623 81.607532 
L 251.431199 82.13215 
L 252.57825 82.663285 
L 253.725301 83.43232 
L 254.298826 83.962676 
L 254.872351 84.654713 
L 255.445877 85.605745 
L 256.019402 86.97754 
L 256.592927 88.973443 
L 257.166453 91.729154 
L 258.313503 99.181342 
L 260.416632 114.291486 
L 261.563683 120.582096 
L 262.137208 122.804878 
L 262.710734 124.29702 
L 263.284259 124.999435 
L 263.857784 124.878002 
L 264.43131 123.931134 
L 265.004835 122.199433 
L 265.57836 119.77452 
L 266.725411 113.481733 
L 268.429442 103.832031 
L 269.002967 101.380035 
L 269.576493 99.578585 
L 270.150018 98.497308 
L 270.723543 98.145243 
L 271.297069 98.48389 
L 271.870594 99.438904 
L 272.444119 100.911196 
L 273.59117 104.9416 
L 275.87067 113.913151 
L 277.01772 117.207808 
L 277.591246 118.266951 
L 278.164771 118.868209 
L 278.738296 118.986844 
L 279.311822 118.62088 
L 279.885347 117.793551 
L 280.925774 115.31168 
L 282.568711 109.922087 
L 283.70175 106.453809 
L 284.275275 105.085159 
L 284.848801 104.075405 
L 285.422326 103.464326 
L 285.995851 103.263459 
L 286.569377 103.458758 
L 287.142902 104.014703 
L 287.716428 104.87907 
L 288.863478 107.269088 
L 291.15758 112.640819 
L 292.30463 114.547403 
L 292.878156 115.130658 
L 293.451681 115.430848 
L 294.025206 115.438231 
L 294.598732 115.158282 
L 295.172257 114.612031 
L 296.319308 112.880348 
L 298.924379 108.007597 
L 299.497904 107.207363 
L 300.07143 106.612341 
L 300.644955 106.246939 
L 301.21848 106.120337 
L 301.792006 106.227234 
L 302.365531 106.549486 
L 302.939056 107.058314 
L 304.086107 108.4825 
L 306.380208 111.709581 
L 307.527259 112.845251 
L 308.100784 113.185864 
L 308.67431 113.354118 
L 309.247835 113.345762 
L 309.82136 113.166049 
L 310.394886 112.82953 
L 311.541936 111.786587 
L 314.23146 108.829986 
L 315.37851 108.041385 
L 315.952036 107.844732 
L 316.525561 107.789169 
L 317.099086 107.871263 
L 318.246137 108.398326 
L 319.393188 109.27047 
L 321.687289 111.198103 
L 322.83434 111.84983 
L 323.98139 112.114195 
L 325.128441 111.960164 
L 326.275492 111.446855 
L 330.290169 109.022688 
L 331.43722 108.783605 
L 332.584271 108.874504 
L 333.731321 109.246748 
L 335.832966 110.308834 
L 337.553542 111.067923 
L 338.700592 111.32922 
L 339.847643 111.33964 
L 340.994694 111.113864 
L 342.71527 110.483032 
L 345.009371 109.630449 
L 346.156422 109.4056 
L 347.303472 109.376572 
L 348.450523 109.534008 
L 350.698323 110.175472 
L 352.831284 110.752838 
L 354.55186 110.916422 
L 356.272436 110.750918 
L 361.975557 109.716369 
L 363.696133 109.822776 
L 369.918641 110.645576 
L 372.124153 110.470183 
L 376.575519 109.940619 
L 378.869621 109.988607 
L 385.56086 110.47681 
L 388.871496 110.243927 
L 392.277888 110.05351 
L 395.074685 110.145618 
L 400.204788 110.388833 
L 401.925364 110.350592 
L 401.925364 110.350592 
" style="fill:none;stroke:#fe3ea0;stroke-linecap:square;stroke-width:1.5;"/>
   </g>
   <g id="patch_3">
    <path d="M 50.078 126.413333 
L 50.078 13.32 
" style="fill:none;stroke:#08bdf9;stroke-linecap:square;stroke-linejoin:miter;stroke-width:0.8;"/>
   </g>
   <g id="patch_4">
    <path d="M 50.078 126.413333 
L 418.68 126.413333 
" style="fill:none;stroke:#08bdf9;stroke-linecap:square;stroke-linejoin:miter;stroke-width:0.8;"/>
   </g>
  </g>
  <g id="axes_2">
   <g id="patch_5">
    <path d="M 50.078 256.786667 
L 418.68 256.786667 
L 418.68 143.693333 
L 50.078 143.693333 
z
" style="fill:#ffffff;"/>
   </g>
   <g id="matplotlib.axis_3">
    <g id="xtick_10">
     <g id="line2d_28">
      <path clip-path="url(#pacf1b48fb9)" d="M 66.405441 256.786667 
L 66.405441 143.693333 
" style="fill:none;stroke:#08bdf9;stroke-dasharray:2.2,2.2;stroke-dashoffset:0;stroke-width:0.8;"/>
     </g>
     <g id="line2d_29">
      <g>
       <use style="fill:#01769d;stroke:#01769d;stroke-width:0.8;" x="66.405441" xlink:href="#m3f753e4934" y="256.786667"/>
      </g>
     </g>
    </g>
    <g id="xtick_11">
     <g id="line2d_30">
      <path clip-path="url(#pacf1b48fb9)" d="M 108.354722 256.786667 
L 108.354722 143.693333 
" style="fill:none;stroke:#08bdf9;stroke-dasharray:2.2,2.2;stroke-dashoffset:0;stroke-width:0.8;"/>
     </g>
     <g id="line2d_31">
      <g>
       <use style="fill:#01769d;stroke:#01769d;stroke-width:0.8;" x="108.354722" xlink:href="#m3f753e4934" y="256.786667"/>
      </g>
     </g>
    </g>
    <g id="xtick_12">
     <g id="line2d_32">
      <path clip-path="url(#pacf1b48fb9)" d="M 150.304004 256.786667 
L 150.304004 143.693333 
" style="fill:none;stroke:#08bdf9;stroke-dasharray:2.2,2.2;stroke-dashoffset:0;stroke-width:0.8;"/>
     </g>
     <g id="line2d_33">
      <g>
       <use style="fill:#01769d;stroke:#01769d;stroke-width:0.8;" x="150.304004" xlink:href="#m3f753e4934" y="256.786667"/>
      </g>
     </g>
    </g>
    <g id="xtick_13">
     <g id="line2d_34">
      <path clip-path="url(#pacf1b48fb9)" d="M 192.253286 256.786667 
L 192.253286 143.693333 
" style="fill:none;stroke:#08bdf9;stroke-dasharray:2.2,2.2;stroke-dashoffset:0;stroke-width:0.8;"/>
     </g>
     <g id="line2d_35">
      <g>
       <use style="fill:#01769d;stroke:#01769d;stroke-width:0.8;" x="192.253286" xlink:href="#m3f753e4934" y="256.786667"/>
      </g>
     </g>
    </g>
    <g id="xtick_14">
     <g id="line2d_36">
      <path clip-path="url(#pacf1b48fb9)" d="M 234.202568 256.786667 
L 234.202568 143.693333 
" style="fill:none;stroke:#08bdf9;stroke-dasharray:2.2,2.2;stroke-dashoffset:0;stroke-width:0.8;"/>
     </g>
     <g id="line2d_37">
      <g>
       <use style="fill:#01769d;stroke:#01769d;stroke-width:0.8;" x="234.202568" xlink:href="#m3f753e4934" y="256.786667"/>
      </g>
     </g>
    </g>
    <g id="xtick_15">
     <g id="line2d_38">
      <path clip-path="url(#pacf1b48fb9)" d="M 276.15185 256.786667 
L 276.15185 143.693333 
" style="fill:none;stroke:#08bdf9;stroke-dasharray:2.2,2.2;stroke-dashoffset:0;stroke-width:0.8;"/>
     </g>
     <g id="line2d_39">
      <g>
       <use style="fill:#01769d;stroke:#01769d;stroke-width:0.8;" x="276.15185" xlink:href="#m3f753e4934" y="256.786667"/>
      </g>
     </g>
    </g>
    <g id="xtick_16">
     <g id="line2d_40">
      <path clip-path="url(#pacf1b48fb9)" d="M 318.101132 256.786667 
L 318.101132 143.693333 
" style="fill:none;stroke:#08bdf9;stroke-dasharray:2.2,2.2;stroke-dashoffset:0;stroke-width:0.8;"/>
     </g>
     <g id="line2d_41">
      <g>
       <use style="fill:#01769d;stroke:#01769d;stroke-width:0.8;" x="318.101132" xlink:href="#m3f753e4934" y="256.786667"/>
      </g>
     </g>
    </g>
    <g id="xtick_17">
     <g id="line2d_42">
      <path clip-path="url(#pacf1b48fb9)" d="M 360.050413 256.786667 
L 360.050413 143.693333 
" style="fill:none;stroke:#08bdf9;stroke-dasharray:2.2,2.2;stroke-dashoffset:0;stroke-width:0.8;"/>
     </g>
     <g id="line2d_43">
      <g>
       <use style="fill:#01769d;stroke:#01769d;stroke-width:0.8;" x="360.050413" xlink:href="#m3f753e4934" y="256.786667"/>
      </g>
     </g>
    </g>
    <g id="xtick_18">
     <g id="line2d_44">
      <path clip-path="url(#pacf1b48fb9)" d="M 401.999695 256.786667 
L 401.999695 143.693333 
" style="fill:none;stroke:#08bdf9;stroke-dasharray:2.2,2.2;stroke-dashoffset:0;stroke-width:0.8;"/>
     </g>
     <g id="line2d_45">
      <g>
       <use style="fill:#01769d;stroke:#01769d;stroke-width:0.8;" x="401.999695" xlink:href="#m3f753e4934" y="256.786667"/>
      </g>
     </g>
    </g>
   </g>
   <g id="matplotlib.axis_4">
    <g id="ytick_5">
     <g id="line2d_46">
      <path clip-path="url(#pacf1b48fb9)" d="M 50.078 249.718333 
L 418.68 249.718333 
" style="fill:none;stroke:#08bdf9;stroke-dasharray:2.2,2.2;stroke-dashoffset:0;stroke-width:0.8;"/>
     </g>
     <g id="line2d_47">
      <g>
       <use style="fill:#01769d;stroke:#01769d;stroke-width:0.8;" x="50.078" xlink:href="#m30fca2d5de" y="249.718333"/>
      </g>
     </g>
     <g id="text_6">
      <!-- 0 -->
      <g style="fill:#01769d;" transform="translate(36.7155 253.517552)scale(0.1 -0.1)">
       <use xlink:href="#DejaVuSans-30"/>
      </g>
     </g>
    </g>
    <g id="ytick_6">
     <g id="line2d_48">
      <path clip-path="url(#pacf1b48fb9)" d="M 50.078 221.445 
L 418.68 221.445 
" style="fill:none;stroke:#08bdf9;stroke-dasharray:2.2,2.2;stroke-dashoffset:0;stroke-width:0.8;"/>
     </g>
     <g id="line2d_49">
      <g>
       <use style="fill:#01769d;stroke:#01769d;stroke-width:0.8;" x="50.078" xlink:href="#m30fca2d5de" y="221.445"/>
      </g>
     </g>
     <g id="text_7">
      <!-- 2 -->
      <g style="fill:#01769d;" transform="translate(36.7155 225.244219)scale(0.1 -0.1)">
       <use xlink:href="#DejaVuSans-32"/>
      </g>
     </g>
    </g>
    <g id="ytick_7">
     <g id="line2d_50">
      <path clip-path="url(#pacf1b48fb9)" d="M 50.078 193.171667 
L 418.68 193.171667 
" style="fill:none;stroke:#08bdf9;stroke-dasharray:2.2,2.2;stroke-dashoffset:0;stroke-width:0.8;"/>
     </g>
     <g id="line2d_51">
      <g>
       <use style="fill:#01769d;stroke:#01769d;stroke-width:0.8;" x="50.078" xlink:href="#m30fca2d5de" y="193.171667"/>
      </g>
     </g>
     <g id="text_8">
      <!-- 4 -->
      <defs>
       <path d="M 37.796875 64.3125 
L 12.890625 25.390625 
L 37.796875 25.390625 
z
M 35.203125 72.90625 
L 47.609375 72.90625 
L 47.609375 25.390625 
L 58.015625 25.390625 
L 58.015625 17.1875 
L 47.609375 17.1875 
L 47.609375 0 
L 37.796875 0 
L 37.796875 17.1875 
L 4.890625 17.1875 
L 4.890625 26.703125 
z
" id="DejaVuSans-34"/>
      </defs>
      <g style="fill:#01769d;" transform="translate(36.7155 196.970885)scale(0.1 -0.1)">
       <use xlink:href="#DejaVuSans-34"/>
      </g>
     </g>
    </g>
    <g id="ytick_8">
     <g id="line2d_52">
      <path clip-path="url(#pacf1b48fb9)" d="M 50.078 164.898333 
L 418.68 164.898333 
" style="fill:none;stroke:#08bdf9;stroke-dasharray:2.2,2.2;stroke-dashoffset:0;stroke-width:0.8;"/>
     </g>
     <g id="line2d_53">
      <g>
       <use style="fill:#01769d;stroke:#01769d;stroke-width:0.8;" x="50.078" xlink:href="#m30fca2d5de" y="164.898333"/>
      </g>
     </g>
     <g id="text_9">
      <!-- 6 -->
      <defs>
       <path d="M 33.015625 40.375 
Q 26.375 40.375 22.484375 35.828125 
Q 18.609375 31.296875 18.609375 23.390625 
Q 18.609375 15.53125 22.484375 10.953125 
Q 26.375 6.390625 33.015625 6.390625 
Q 39.65625 6.390625 43.53125 10.953125 
Q 47.40625 15.53125 47.40625 23.390625 
Q 47.40625 31.296875 43.53125 35.828125 
Q 39.65625 40.375 33.015625 40.375 
M 52.59375 71.296875 
L 52.59375 62.3125 
Q 48.875 64.0625 45.09375 64.984375 
Q 41.3125 65.921875 37.59375 65.921875 
Q 27.828125 65.921875 22.671875 59.328125 
Q 17.53125 52.734375 16.796875 39.40625 
Q 19.671875 43.65625 24.015625 45.921875 
Q 28.375 48.1875 33.59375 48.1875 
Q 44.578125 48.1875 50.953125 41.515625 
Q 57.328125 34.859375 57.328125 23.390625 
Q 57.328125 12.15625 50.6875 5.359375 
Q 44.046875 -1.421875 33.015625 -1.421875 
Q 20.359375 -1.421875 13.671875 8.265625 
Q 6.984375 17.96875 6.984375 36.375 
Q 6.984375 53.65625 15.1875 63.9375 
Q 23.390625 74.21875 37.203125 74.21875 
Q 40.921875 74.21875 44.703125 73.484375 
Q 48.484375 72.75 52.59375 71.296875 
" id="DejaVuSans-36"/>
      </defs>
      <g style="fill:#01769d;" transform="translate(36.7155 168.697552)scale(0.1 -0.1)">
       <use xlink:href="#DejaVuSans-36"/>
      </g>
     </g>
    </g>
    <g id="text_10">
     <!-- $V_{drain}\;(V)$ -->
     <defs>
      <path d="M 41.796875 8.203125 
Q 38.1875 3.46875 33.25 1.015625 
Q 28.328125 -1.421875 22.3125 -1.421875 
Q 14.109375 -1.421875 9.34375 4.171875 
Q 4.59375 9.765625 4.59375 19.484375 
Q 4.59375 27.59375 7.46875 34.9375 
Q 10.359375 42.28125 15.828125 48.09375 
Q 19.4375 51.953125 23.96875 53.96875 
Q 28.515625 56 33.5 56 
Q 38.765625 56 42.796875 53.453125 
Q 46.828125 50.921875 49.03125 46.1875 
L 54.890625 75.984375 
L 63.921875 75.984375 
L 49.125 0 
L 40.09375 0 
z
M 13.921875 21.09375 
Q 13.921875 14.015625 17.109375 10.0625 
Q 20.3125 6.109375 25.984375 6.109375 
Q 30.171875 6.109375 33.765625 8.125 
Q 37.359375 10.15625 40.09375 14.109375 
Q 42.96875 18.21875 44.625 23.578125 
Q 46.296875 28.953125 46.296875 34.1875 
Q 46.296875 40.96875 43.09375 44.765625 
Q 39.890625 48.578125 34.28125 48.578125 
Q 30.03125 48.578125 26.359375 46.578125 
Q 22.703125 44.578125 20.125 40.828125 
Q 17.28125 36.765625 15.59375 31.390625 
Q 13.921875 26.03125 13.921875 21.09375 
" id="DejaVuSans-Oblique-64"/>
      <path d="M 44.578125 46.390625 
Q 43.21875 47.125 41.453125 47.515625 
Q 39.703125 47.90625 37.703125 47.90625 
Q 30.515625 47.90625 25.140625 42.453125 
Q 19.78125 37.015625 18.015625 27.875 
L 12.5 0 
L 3.515625 0 
L 14.203125 54.6875 
L 23.1875 54.6875 
L 21.484375 46.1875 
Q 25.046875 50.921875 30 53.453125 
Q 34.96875 56 40.578125 56 
Q 42.046875 56 43.453125 55.828125 
Q 44.875 55.671875 46.296875 55.28125 
z
" id="DejaVuSans-Oblique-72"/>
      <path d="M 18.3125 75.984375 
L 27.296875 75.984375 
L 25.09375 64.59375 
L 16.109375 64.59375 
z
M 14.203125 54.6875 
L 23.1875 54.6875 
L 12.5 0 
L 3.515625 0 
z
" id="DejaVuSans-Oblique-69"/>
      <path d="M 55.71875 33.015625 
L 49.3125 0 
L 40.28125 0 
L 46.6875 32.671875 
Q 47.125 34.96875 47.359375 36.71875 
Q 47.609375 38.484375 47.609375 39.5 
Q 47.609375 43.609375 45.015625 45.890625 
Q 42.4375 48.1875 37.796875 48.1875 
Q 30.5625 48.1875 25.34375 43.375 
Q 20.125 38.578125 18.5 30.328125 
L 12.5 0 
L 3.515625 0 
L 14.109375 54.6875 
L 23.09375 54.6875 
L 21.296875 46.09375 
Q 25.046875 50.828125 30.3125 53.40625 
Q 35.59375 56 41.40625 56 
Q 48.640625 56 52.609375 52.09375 
Q 56.59375 48.1875 56.59375 41.109375 
Q 56.59375 39.359375 56.375 37.359375 
Q 56.15625 35.359375 55.71875 33.015625 
" id="DejaVuSans-Oblique-6e"/>
     </defs>
     <g style="fill:#01769d;" transform="translate(30.635813 221.49)rotate(-90)scale(0.1 -0.1)">
      <use transform="translate(0 0.125)" xlink:href="#DejaVuSans-Oblique-56"/>
      <use transform="translate(68.408203 -16.28125)scale(0.7)" xlink:href="#DejaVuSans-Oblique-64"/>
      <use transform="translate(112.841797 -16.28125)scale(0.7)" xlink:href="#DejaVuSans-Oblique-72"/>
      <use transform="translate(141.621094 -16.28125)scale(0.7)" xlink:href="#DejaVuSans-Oblique-61"/>
      <use transform="translate(184.516602 -16.28125)scale(0.7)" xlink:href="#DejaVuSans-Oblique-69"/>
      <use transform="translate(203.964844 -16.28125)scale(0.7)" xlink:href="#DejaVuSans-Oblique-6e"/>
      <use transform="translate(278.123589 0.125)" xlink:href="#DejaVuSans-28"/>
      <use transform="translate(317.137261 0.125)" xlink:href="#DejaVuSans-Oblique-56"/>
      <use transform="translate(385.545464 0.125)" xlink:href="#DejaVuSans-29"/>
     </g>
    </g>
   </g>
   <g id="line2d_54">
    <path clip-path="url(#pacf1b48fb9)" d="M 66.832636 180.884995 
L 69.469611 180.720331 
L 74.057814 180.380584 
L 76.92544 180.455565 
L 82.087168 180.654016 
L 86.101846 180.457841 
L 90.116523 180.325593 
L 101.420763 180.333552 
L 106.008966 180.249283 
L 115.518872 180.248322 
L 122.364245 180.158837 
L 131.361879 180.113444 
L 139.928654 180.056869 
L 150.427997 179.950137 
L 150.502894 179.765032 
L 150.967592 178.116866 
L 151.028975 177.987204 
L 151.124638 178.066766 
L 151.304041 179.994498 
L 152.827564 214.522797 
L 153.40109 222.857338 
L 153.974615 229.214215 
L 155.121666 238.157437 
L 156.268716 244.833738 
L 157.049663 248.559042 
L 157.283102 248.990552 
L 157.705923 249.262817 
L 158.42899 249.428534 
L 160.241684 249.54063 
L 167.123988 249.601052 
L 223.329471 249.61241 
L 238.354014 249.513276 
L 240.648115 249.288384 
L 241.795166 248.931662 
L 242.368691 248.543793 
L 242.803205 248.001367 
L 243.594352 246.171234 
L 245.695946 240.154203 
L 247.416522 234.454494 
L 248.563572 229.862721 
L 249.710623 224.166125 
L 250.857674 216.840023 
L 252.004725 207.434984 
L 253.151775 195.802981 
L 254.872351 175.137606 
L 256.019402 161.467534 
L 256.592927 155.968781 
L 257.166453 152.14231 
L 257.739978 150.350233 
L 258.313503 150.624301 
L 258.849827 152.676704 
L 259.423353 156.487865 
L 260.416632 166.199557 
L 263.284259 198.511694 
L 263.857784 202.908607 
L 264.43131 206.014857 
L 265.004835 207.720827 
L 265.57836 207.99775 
L 266.151886 206.89304 
L 266.725411 204.522576 
L 267.298936 201.061312 
L 268.429442 191.947813 
L 270.723543 171.852146 
L 271.297069 168.089219 
L 271.870594 165.261518 
L 272.444119 163.493191 
L 273.017645 162.843753 
L 273.59117 163.300084 
L 274.150094 164.754874 
L 274.723619 167.159309 
L 275.87067 173.984577 
L 278.164771 189.473402 
L 278.738296 192.457963 
L 279.311822 194.751453 
L 279.885347 196.256923 
L 280.458872 196.96363 
L 280.925774 196.906065 
L 281.42166 196.200674 
L 281.995185 194.707799 
L 282.568711 192.607091 
L 283.70175 187.130885 
L 285.422326 177.97205 
L 286.569377 173.210382 
L 287.142902 171.621152 
L 287.716428 170.661428 
L 288.289953 170.36118 
L 288.863478 170.712122 
L 289.437004 171.669599 
L 290.010529 173.156409 
L 291.15758 177.282265 
L 293.451681 186.430866 
L 294.025206 188.159653 
L 294.598732 189.469599 
L 295.172257 190.305245 
L 295.745782 190.639351 
L 296.319308 190.483198 
L 296.84207 189.918396 
L 297.415595 188.897728 
L 298.350854 186.504306 
L 301.21848 177.718353 
L 301.792006 176.444753 
L 302.365531 175.507647 
L 302.939056 174.946252 
L 303.512582 174.777446 
L 304.086107 174.995575 
L 304.659632 175.573566 
L 305.233158 176.465251 
L 306.380208 178.930177 
L 308.67431 184.379522 
L 309.247835 185.406509 
L 309.82136 186.18264 
L 310.394886 186.674681 
L 310.968411 186.866318 
L 311.541936 186.762865 
L 312.07712 186.406282 
L 312.650645 185.781145 
L 313.657934 184.203832 
L 316.525561 178.969759 
L 317.099086 178.239487 
L 317.672612 177.715639 
L 318.246137 177.419151 
L 318.819662 177.357628 
L 319.393188 177.525331 
L 319.966713 177.903954 
L 321.113764 179.167673 
L 323.98139 183.194474 
L 325.128441 184.218096 
L 325.701967 184.480119 
L 326.275492 184.561391 
L 326.849017 184.464003 
L 327.422543 184.199789 
L 328.569593 183.260181 
L 332.010745 179.579488 
L 333.157796 178.947409 
L 334.205585 178.840041 
L 335.25944 179.201643 
L 336.406491 179.979965 
L 339.274118 182.371805 
L 340.421168 182.95302 
L 341.568219 183.121585 
L 342.71527 182.869825 
L 343.86232 182.280128 
L 347.303472 180.073225 
L 348.450523 179.714592 
L 349.597574 179.685682 
L 350.698323 179.952003 
L 352.257758 180.66664 
L 354.55186 181.79247 
L 355.69891 182.122222 
L 356.845961 182.202334 
L 357.984248 182.033359 
L 359.681456 181.44427 
L 362.549082 180.341695 
L 363.696133 180.129828 
L 364.843184 180.116582 
L 365.957953 180.282547 
L 368.198065 180.925878 
L 369.918641 181.397081 
L 371.639217 181.602516 
L 373.160226 181.496604 
L 374.854943 181.139582 
L 377.72257 180.464782 
L 379.443146 180.308007 
L 380.994804 180.394339 
L 383.840284 180.87353 
L 386.134386 181.16353 
L 387.724446 181.165791 
L 389.983787 180.908646 
L 393.424939 180.437075 
L 395.616585 180.398552 
L 398.484212 180.649605 
L 401.351838 180.87599 
L 401.925364 180.886917 
L 401.925364 180.886917 
" style="fill:none;stroke:#fe3ea0;stroke-linecap:square;stroke-width:1.5;"/>
   </g>
   <g id="patch_6">
    <path d="M 50.078 256.786667 
L 50.078 143.693333 
" style="fill:none;stroke:#08bdf9;stroke-linecap:square;stroke-linejoin:miter;stroke-width:0.8;"/>
   </g>
   <g id="patch_7">
    <path d="M 50.078 256.786667 
L 418.68 256.786667 
" style="fill:none;stroke:#08bdf9;stroke-linecap:square;stroke-linejoin:miter;stroke-width:0.8;"/>
   </g>
  </g>
  <g id="axes_3">
   <g id="patch_8">
    <path d="M 50.078 387.16 
L 418.68 387.16 
L 418.68 274.066667 
L 50.078 274.066667 
z
" style="fill:#ffffff;"/>
   </g>
   <g id="matplotlib.axis_5">
    <g id="xtick_19">
     <g id="line2d_55">
      <path clip-path="url(#pc056b0909f)" d="M 66.405441 387.16 
L 66.405441 274.066667 
" style="fill:none;stroke:#08bdf9;stroke-dasharray:2.2,2.2;stroke-dashoffset:0;stroke-width:0.8;"/>
     </g>
     <g id="line2d_56">
      <g>
       <use style="fill:#01769d;stroke:#01769d;stroke-width:0.8;" x="66.405441" xlink:href="#m3f753e4934" y="387.16"/>
      </g>
     </g>
     <g id="text_11">
      <!-- 0.0 -->
      <defs>
       <path d="M 10.6875 12.40625 
L 21 12.40625 
L 21 0 
L 10.6875 0 
z
" id="DejaVuSans-2e"/>
      </defs>
      <g style="fill:#01769d;" transform="translate(58.453878 401.758438)scale(0.1 -0.1)">
       <use xlink:href="#DejaVuSans-30"/>
       <use x="63.623047" xlink:href="#DejaVuSans-2e"/>
       <use x="95.410156" xlink:href="#DejaVuSans-30"/>
      </g>
     </g>
    </g>
    <g id="xtick_20">
     <g id="line2d_57">
      <path clip-path="url(#pc056b0909f)" d="M 108.354722 387.16 
L 108.354722 274.066667 
" style="fill:none;stroke:#08bdf9;stroke-dasharray:2.2,2.2;stroke-dashoffset:0;stroke-width:0.8;"/>
     </g>
     <g id="line2d_58">
      <g>
       <use style="fill:#01769d;stroke:#01769d;stroke-width:0.8;" x="108.354722" xlink:href="#m3f753e4934" y="387.16"/>
      </g>
     </g>
     <g id="text_12">
      <!-- 0.5 -->
      <defs>
       <path d="M 10.796875 72.90625 
L 49.515625 72.90625 
L 49.515625 64.59375 
L 19.828125 64.59375 
L 19.828125 46.734375 
Q 21.96875 47.46875 24.109375 47.828125 
Q 26.265625 48.1875 28.421875 48.1875 
Q 40.625 48.1875 47.75 41.5 
Q 54.890625 34.8125 54.890625 23.390625 
Q 54.890625 11.625 47.5625 5.09375 
Q 40.234375 -1.421875 26.90625 -1.421875 
Q 22.3125 -1.421875 17.546875 -0.640625 
Q 12.796875 0.140625 7.71875 1.703125 
L 7.71875 11.625 
Q 12.109375 9.234375 16.796875 8.0625 
Q 21.484375 6.890625 26.703125 6.890625 
Q 35.15625 6.890625 40.078125 11.328125 
Q 45.015625 15.765625 45.015625 23.390625 
Q 45.015625 31 40.078125 35.4375 
Q 35.15625 39.890625 26.703125 39.890625 
Q 22.75 39.890625 18.8125 39.015625 
Q 14.890625 38.140625 10.796875 36.28125 
z
" id="DejaVuSans-35"/>
      </defs>
      <g style="fill:#01769d;" transform="translate(100.40316 401.758438)scale(0.1 -0.1)">
       <use xlink:href="#DejaVuSans-30"/>
       <use x="63.623047" xlink:href="#DejaVuSans-2e"/>
       <use x="95.410156" xlink:href="#DejaVuSans-35"/>
      </g>
     </g>
    </g>
    <g id="xtick_21">
     <g id="line2d_59">
      <path clip-path="url(#pc056b0909f)" d="M 150.304004 387.16 
L 150.304004 274.066667 
" style="fill:none;stroke:#08bdf9;stroke-dasharray:2.2,2.2;stroke-dashoffset:0;stroke-width:0.8;"/>
     </g>
     <g id="line2d_60">
      <g>
       <use style="fill:#01769d;stroke:#01769d;stroke-width:0.8;" x="150.304004" xlink:href="#m3f753e4934" y="387.16"/>
      </g>
     </g>
     <g id="text_13">
      <!-- 1.0 -->
      <g style="fill:#01769d;" transform="translate(142.352442 401.758438)scale(0.1 -0.1)">
       <use xlink:href="#DejaVuSans-31"/>
       <use x="63.623047" xlink:href="#DejaVuSans-2e"/>
       <use x="95.410156" xlink:href="#DejaVuSans-30"/>
      </g>
     </g>
    </g>
    <g id="xtick_22">
     <g id="line2d_61">
      <path clip-path="url(#pc056b0909f)" d="M 192.253286 387.16 
L 192.253286 274.066667 
" style="fill:none;stroke:#08bdf9;stroke-dasharray:2.2,2.2;stroke-dashoffset:0;stroke-width:0.8;"/>
     </g>
     <g id="line2d_62">
      <g>
       <use style="fill:#01769d;stroke:#01769d;stroke-width:0.8;" x="192.253286" xlink:href="#m3f753e4934" y="387.16"/>
      </g>
     </g>
     <g id="text_14">
      <!-- 1.5 -->
      <g style="fill:#01769d;" transform="translate(184.301724 401.758438)scale(0.1 -0.1)">
       <use xlink:href="#DejaVuSans-31"/>
       <use x="63.623047" xlink:href="#DejaVuSans-2e"/>
       <use x="95.410156" xlink:href="#DejaVuSans-35"/>
      </g>
     </g>
    </g>
    <g id="xtick_23">
     <g id="line2d_63">
      <path clip-path="url(#pc056b0909f)" d="M 234.202568 387.16 
L 234.202568 274.066667 
" style="fill:none;stroke:#08bdf9;stroke-dasharray:2.2,2.2;stroke-dashoffset:0;stroke-width:0.8;"/>
     </g>
     <g id="line2d_64">
      <g>
       <use style="fill:#01769d;stroke:#01769d;stroke-width:0.8;" x="234.202568" xlink:href="#m3f753e4934" y="387.16"/>
      </g>
     </g>
     <g id="text_15">
      <!-- 2.0 -->
      <g style="fill:#01769d;" transform="translate(226.251005 401.758438)scale(0.1 -0.1)">
       <use xlink:href="#DejaVuSans-32"/>
       <use x="63.623047" xlink:href="#DejaVuSans-2e"/>
       <use x="95.410156" xlink:href="#DejaVuSans-30"/>
      </g>
     </g>
    </g>
    <g id="xtick_24">
     <g id="line2d_65">
      <path clip-path="url(#pc056b0909f)" d="M 276.15185 387.16 
L 276.15185 274.066667 
" style="fill:none;stroke:#08bdf9;stroke-dasharray:2.2,2.2;stroke-dashoffset:0;stroke-width:0.8;"/>
     </g>
     <g id="line2d_66">
      <g>
       <use style="fill:#01769d;stroke:#01769d;stroke-width:0.8;" x="276.15185" xlink:href="#m3f753e4934" y="387.16"/>
      </g>
     </g>
     <g id="text_16">
      <!-- 2.5 -->
      <g style="fill:#01769d;" transform="translate(268.200287 401.758438)scale(0.1 -0.1)">
       <use xlink:href="#DejaVuSans-32"/>
       <use x="63.623047" xlink:href="#DejaVuSans-2e"/>
       <use x="95.410156" xlink:href="#DejaVuSans-35"/>
      </g>
     </g>
    </g>
    <g id="xtick_25">
     <g id="line2d_67">
      <path clip-path="url(#pc056b0909f)" d="M 318.101132 387.16 
L 318.101132 274.066667 
" style="fill:none;stroke:#08bdf9;stroke-dasharray:2.2,2.2;stroke-dashoffset:0;stroke-width:0.8;"/>
     </g>
     <g id="line2d_68">
      <g>
       <use style="fill:#01769d;stroke:#01769d;stroke-width:0.8;" x="318.101132" xlink:href="#m3f753e4934" y="387.16"/>
      </g>
     </g>
     <g id="text_17">
      <!-- 3.0 -->
      <g style="fill:#01769d;" transform="translate(310.149569 401.758438)scale(0.1 -0.1)">
       <use xlink:href="#DejaVuSans-33"/>
       <use x="63.623047" xlink:href="#DejaVuSans-2e"/>
       <use x="95.410156" xlink:href="#DejaVuSans-30"/>
      </g>
     </g>
    </g>
    <g id="xtick_26">
     <g id="line2d_69">
      <path clip-path="url(#pc056b0909f)" d="M 360.050413 387.16 
L 360.050413 274.066667 
" style="fill:none;stroke:#08bdf9;stroke-dasharray:2.2,2.2;stroke-dashoffset:0;stroke-width:0.8;"/>
     </g>
     <g id="line2d_70">
      <g>
       <use style="fill:#01769d;stroke:#01769d;stroke-width:0.8;" x="360.050413" xlink:href="#m3f753e4934" y="387.16"/>
      </g>
     </g>
     <g id="text_18">
      <!-- 3.5 -->
      <g style="fill:#01769d;" transform="translate(352.098851 401.758438)scale(0.1 -0.1)">
       <use xlink:href="#DejaVuSans-33"/>
       <use x="63.623047" xlink:href="#DejaVuSans-2e"/>
       <use x="95.410156" xlink:href="#DejaVuSans-35"/>
      </g>
     </g>
    </g>
    <g id="xtick_27">
     <g id="line2d_71">
      <path clip-path="url(#pc056b0909f)" d="M 401.999695 387.16 
L 401.999695 274.066667 
" style="fill:none;stroke:#08bdf9;stroke-dasharray:2.2,2.2;stroke-dashoffset:0;stroke-width:0.8;"/>
     </g>
     <g id="line2d_72">
      <g>
       <use style="fill:#01769d;stroke:#01769d;stroke-width:0.8;" x="401.999695" xlink:href="#m3f753e4934" y="387.16"/>
      </g>
     </g>
     <g id="text_19">
      <!-- 4.0 -->
      <g style="fill:#01769d;" transform="translate(394.048133 401.758438)scale(0.1 -0.1)">
       <use xlink:href="#DejaVuSans-34"/>
       <use x="63.623047" xlink:href="#DejaVuSans-2e"/>
       <use x="95.410156" xlink:href="#DejaVuSans-30"/>
      </g>
     </g>
    </g>
    <g id="text_20">
     <!-- $t\;(\mu s)$ -->
     <defs>
      <path d="M -1.3125 -20.796875 
L 13.375 54.6875 
L 22.40625 54.6875 
L 15.765625 20.65625 
Q 15.578125 19.625 15.421875 18.359375 
Q 15.28125 17.09375 15.28125 15.828125 
Q 15.28125 11.28125 18.140625 8.828125 
Q 21 6.390625 26.3125 6.390625 
Q 33.546875 6.390625 37.984375 10.484375 
Q 42.4375 14.59375 44 22.796875 
L 50.203125 54.6875 
L 59.1875 54.6875 
L 51.03125 12.640625 
Q 50.828125 11.71875 50.75 11.03125 
Q 50.6875 10.359375 50.6875 9.8125 
Q 50.6875 8.296875 51.296875 7.59375 
Q 51.90625 6.890625 53.21875 6.890625 
Q 53.71875 6.890625 54.5625 7.125 
Q 55.421875 7.375 56.984375 8.015625 
L 55.609375 0.78125 
Q 53.46875 -0.296875 51.515625 -0.859375 
Q 49.5625 -1.421875 47.703125 -1.421875 
Q 44.484375 -1.421875 42.65625 0.625 
Q 40.828125 2.6875 40.828125 6.296875 
Q 38.09375 2.390625 34.296875 0.484375 
Q 30.515625 -1.421875 25.390625 -1.421875 
Q 20.84375 -1.421875 17.453125 0.671875 
Q 14.0625 2.78125 12.984375 6.203125 
L 7.71875 -20.796875 
z
" id="DejaVuSans-Oblique-3bc"/>
      <path d="M 50 53.078125 
L 48.296875 44.578125 
Q 44.734375 46.53125 40.765625 47.5 
Q 36.8125 48.484375 32.625 48.484375 
Q 25.53125 48.484375 21.453125 46.0625 
Q 17.390625 43.65625 17.390625 39.5 
Q 17.390625 34.671875 26.859375 32.078125 
Q 27.59375 31.890625 27.9375 31.78125 
L 30.8125 30.90625 
Q 39.796875 28.421875 42.796875 25.6875 
Q 45.796875 22.953125 45.796875 18.21875 
Q 45.796875 9.515625 38.890625 4.046875 
Q 31.984375 -1.421875 20.796875 -1.421875 
Q 16.453125 -1.421875 11.671875 -0.578125 
Q 6.890625 0.25 1.125 2 
L 2.875 11.28125 
Q 7.8125 8.734375 12.59375 7.421875 
Q 17.390625 6.109375 21.78125 6.109375 
Q 28.375 6.109375 32.5 8.9375 
Q 36.625 11.765625 36.625 16.109375 
Q 36.625 20.796875 25.78125 23.6875 
L 24.859375 23.921875 
L 21.78125 24.703125 
Q 14.9375 26.515625 11.765625 29.46875 
Q 8.59375 32.421875 8.59375 37.015625 
Q 8.59375 45.75 15.15625 50.875 
Q 21.734375 56 33.015625 56 
Q 37.453125 56 41.671875 55.265625 
Q 45.90625 54.546875 50 53.078125 
" id="DejaVuSans-Oblique-73"/>
     </defs>
     <g style="fill:#01769d;" transform="translate(221.329 415.438125)scale(0.1 -0.1)">
      <use transform="translate(0 0.125)" xlink:href="#DejaVuSans-Oblique-74"/>
      <use transform="translate(66.26812 0.125)" xlink:href="#DejaVuSans-28"/>
      <use transform="translate(105.281792 0.125)" xlink:href="#DejaVuSans-Oblique-3bc"/>
      <use transform="translate(168.904839 0.125)" xlink:href="#DejaVuSans-Oblique-73"/>
      <use transform="translate(221.004448 0.125)" xlink:href="#DejaVuSans-29"/>
     </g>
    </g>
   </g>
   <g id="matplotlib.axis_6">
    <g id="ytick_9">
     <g id="line2d_73">
      <path clip-path="url(#pc056b0909f)" d="M 50.078 387.16 
L 418.68 387.16 
" style="fill:none;stroke:#08bdf9;stroke-dasharray:2.2,2.2;stroke-dashoffset:0;stroke-width:0.8;"/>
     </g>
     <g id="line2d_74">
      <g>
       <use style="fill:#01769d;stroke:#01769d;stroke-width:0.8;" x="50.078" xlink:href="#m30fca2d5de" y="387.16"/>
      </g>
     </g>
     <g id="text_21">
      <!-- −0.1 -->
      <defs>
       <path d="M 10.59375 35.5 
L 73.1875 35.5 
L 73.1875 27.203125 
L 10.59375 27.203125 
z
" id="DejaVuSans-2212"/>
      </defs>
      <g style="fill:#01769d;" transform="translate(18.795188 390.959219)scale(0.1 -0.1)">
       <use xlink:href="#DejaVuSans-2212"/>
       <use x="83.789062" xlink:href="#DejaVuSans-30"/>
       <use x="147.412109" xlink:href="#DejaVuSans-2e"/>
       <use x="179.199219" xlink:href="#DejaVuSans-31"/>
      </g>
     </g>
    </g>
    <g id="ytick_10">
     <g id="line2d_75">
      <path clip-path="url(#pc056b0909f)" d="M 50.078 364.541333 
L 418.68 364.541333 
" style="fill:none;stroke:#08bdf9;stroke-dasharray:2.2,2.2;stroke-dashoffset:0;stroke-width:0.8;"/>
     </g>
     <g id="line2d_76">
      <g>
       <use style="fill:#01769d;stroke:#01769d;stroke-width:0.8;" x="50.078" xlink:href="#m30fca2d5de" y="364.541333"/>
      </g>
     </g>
     <g id="text_22">
      <!-- 0.0 -->
      <g style="fill:#01769d;" transform="translate(27.174875 368.340552)scale(0.1 -0.1)">
       <use xlink:href="#DejaVuSans-30"/>
       <use x="63.623047" xlink:href="#DejaVuSans-2e"/>
       <use x="95.410156" xlink:href="#DejaVuSans-30"/>
      </g>
     </g>
    </g>
    <g id="ytick_11">
     <g id="line2d_77">
      <path clip-path="url(#pc056b0909f)" d="M 50.078 341.922667 
L 418.68 341.922667 
" style="fill:none;stroke:#08bdf9;stroke-dasharray:2.2,2.2;stroke-dashoffset:0;stroke-width:0.8;"/>
     </g>
     <g id="line2d_78">
      <g>
       <use style="fill:#01769d;stroke:#01769d;stroke-width:0.8;" x="50.078" xlink:href="#m30fca2d5de" y="341.922667"/>
      </g>
     </g>
     <g id="text_23">
      <!-- 0.1 -->
      <g style="fill:#01769d;" transform="translate(27.174875 345.721885)scale(0.1 -0.1)">
       <use xlink:href="#DejaVuSans-30"/>
       <use x="63.623047" xlink:href="#DejaVuSans-2e"/>
       <use x="95.410156" xlink:href="#DejaVuSans-31"/>
      </g>
     </g>
    </g>
    <g id="ytick_12">
     <g id="line2d_79">
      <path clip-path="url(#pc056b0909f)" d="M 50.078 319.304 
L 418.68 319.304 
" style="fill:none;stroke:#08bdf9;stroke-dasharray:2.2,2.2;stroke-dashoffset:0;stroke-width:0.8;"/>
     </g>
     <g id="line2d_80">
      <g>
       <use style="fill:#01769d;stroke:#01769d;stroke-width:0.8;" x="50.078" xlink:href="#m30fca2d5de" y="319.304"/>
      </g>
     </g>
     <g id="text_24">
      <!-- 0.2 -->
      <g style="fill:#01769d;" transform="translate(27.174875 323.103219)scale(0.1 -0.1)">
       <use xlink:href="#DejaVuSans-30"/>
       <use x="63.623047" xlink:href="#DejaVuSans-2e"/>
       <use x="95.410156" xlink:href="#DejaVuSans-32"/>
      </g>
     </g>
    </g>
    <g id="ytick_13">
     <g id="line2d_81">
      <path clip-path="url(#pc056b0909f)" d="M 50.078 296.685333 
L 418.68 296.685333 
" style="fill:none;stroke:#08bdf9;stroke-dasharray:2.2,2.2;stroke-dashoffset:0;stroke-width:0.8;"/>
     </g>
     <g id="line2d_82">
      <g>
       <use style="fill:#01769d;stroke:#01769d;stroke-width:0.8;" x="50.078" xlink:href="#m30fca2d5de" y="296.685333"/>
      </g>
     </g>
     <g id="text_25">
      <!-- 0.3 -->
      <g style="fill:#01769d;" transform="translate(27.174875 300.484552)scale(0.1 -0.1)">
       <use xlink:href="#DejaVuSans-30"/>
       <use x="63.623047" xlink:href="#DejaVuSans-2e"/>
       <use x="95.410156" xlink:href="#DejaVuSans-33"/>
      </g>
     </g>
    </g>
    <g id="ytick_14">
     <g id="line2d_83">
      <path clip-path="url(#pc056b0909f)" d="M 50.078 274.066667 
L 418.68 274.066667 
" style="fill:none;stroke:#08bdf9;stroke-dasharray:2.2,2.2;stroke-dashoffset:0;stroke-width:0.8;"/>
     </g>
     <g id="line2d_84">
      <g>
       <use style="fill:#01769d;stroke:#01769d;stroke-width:0.8;" x="50.078" xlink:href="#m30fca2d5de" y="274.066667"/>
      </g>
     </g>
     <g id="text_26">
      <!-- 0.4 -->
      <g style="fill:#01769d;" transform="translate(27.174875 277.865885)scale(0.1 -0.1)">
       <use xlink:href="#DejaVuSans-30"/>
       <use x="63.623047" xlink:href="#DejaVuSans-2e"/>
       <use x="95.410156" xlink:href="#DejaVuSans-34"/>
      </g>
     </g>
    </g>
    <g id="text_27">
     <!-- $I_{LED}\;(A)$ -->
     <defs>
      <path d="M 16.890625 72.90625 
L 26.8125 72.90625 
L 12.59375 0 
L 2.6875 0 
z
" id="DejaVuSans-Oblique-49"/>
      <path d="M 16.796875 72.90625 
L 26.703125 72.90625 
L 14.203125 8.203125 
L 49.703125 8.203125 
L 48.09375 0 
L 2.6875 0 
z
" id="DejaVuSans-Oblique-4c"/>
      <path d="M 16.890625 72.90625 
L 62.984375 72.90625 
L 61.375 64.59375 
L 25.09375 64.59375 
L 20.90625 43.015625 
L 55.71875 43.015625 
L 54.109375 34.71875 
L 19.28125 34.71875 
L 14.203125 8.296875 
L 51.3125 8.296875 
L 49.703125 0 
L 2.6875 0 
z
" id="DejaVuSans-Oblique-45"/>
      <path d="M 16.890625 72.90625 
L 38.09375 72.90625 
Q 54.984375 72.90625 63.59375 65.75 
Q 72.21875 58.59375 72.21875 44.484375 
Q 72.21875 35.15625 68.9375 26.53125 
Q 65.671875 17.921875 59.90625 12.015625 
Q 54.109375 5.953125 45.171875 2.96875 
Q 36.234375 0 24.03125 0 
L 2.6875 0 
z
M 25.203125 64.796875 
L 14.203125 8.109375 
L 27.09375 8.109375 
Q 43.65625 8.109375 52.734375 17.625 
Q 61.8125 27.15625 61.8125 44.484375 
Q 61.8125 54.984375 55.953125 59.890625 
Q 50.09375 64.796875 37.59375 64.796875 
z
" id="DejaVuSans-Oblique-44"/>
      <path d="M 36.8125 72.90625 
L 48 72.90625 
L 61.53125 0 
L 51.21875 0 
L 48.1875 18.703125 
L 15.375 18.703125 
L 5.078125 0 
L -5.328125 0 
z
M 40.375 63.1875 
L 19.921875 26.90625 
L 46.6875 26.90625 
z
" id="DejaVuSans-Oblique-41"/>
     </defs>
     <g style="fill:#01769d;" transform="translate(12.7155 347.763333)rotate(-90)scale(0.1 -0.1)">
      <use transform="translate(0 0.125)" xlink:href="#DejaVuSans-Oblique-49"/>
      <use transform="translate(29.492188 -16.28125)scale(0.7)" xlink:href="#DejaVuSans-Oblique-4c"/>
      <use transform="translate(68.491211 -16.28125)scale(0.7)" xlink:href="#DejaVuSans-Oblique-45"/>
      <use transform="translate(112.719727 -16.28125)scale(0.7)" xlink:href="#DejaVuSans-Oblique-44"/>
      <use transform="translate(196.414604 0.125)" xlink:href="#DejaVuSans-28"/>
      <use transform="translate(235.428276 0.125)" xlink:href="#DejaVuSans-Oblique-41"/>
      <use transform="translate(303.836479 0.125)" xlink:href="#DejaVuSans-29"/>
     </g>
    </g>
   </g>
   <g id="line2d_85">
    <path clip-path="url(#pc056b0909f)" d="M 66.832636 364.528031 
L 71.190187 364.425503 
L 84.38127 364.472494 
L 89.542998 364.508598 
L 95.835883 364.54216 
L 104.861915 364.514125 
L 113.280586 364.512495 
L 123.90605 364.533749 
L 151.719679 364.527076 
L 151.992614 364.265864 
L 152.343153 363.658425 
L 152.827564 362.348952 
L 153.40109 360.256677 
L 154.54814 354.881826 
L 156.268716 345.228021 
L 157.283102 337.537269 
L 158.786269 323.508765 
L 159.683555 318.209211 
L 160.81521 313.411702 
L 161.96226 309.633027 
L 163.109311 306.476298 
L 164.256362 303.772757 
L 165.976938 300.395043 
L 167.697514 297.675126 
L 169.41809 295.480392 
L 171.138666 293.707224 
L 172.859242 292.273427 
L 174.579818 291.11327 
L 176.300394 290.174098 
L 178.594495 289.193579 
L 180.888596 288.453111 
L 183.756223 287.776677 
L 187.197375 287.223176 
L 191.212052 286.812308 
L 196.37378 286.508426 
L 204.403135 286.291875 
L 218.167743 286.185839 
L 240.07459 286.213501 
L 242.803205 286.416391 
L 243.594352 286.62973 
L 244.548895 287.175496 
L 245.695946 288.340923 
L 246.842996 290.070097 
L 247.990047 292.373786 
L 249.137098 295.293358 
L 250.284148 298.935868 
L 251.431199 303.491245 
L 252.57825 309.222069 
L 253.725301 316.410213 
L 254.872351 325.261395 
L 256.019402 335.756094 
L 258.849827 363.661091 
L 259.901051 371.202972 
L 260.416632 373.7076 
L 260.990158 375.573237 
L 261.563683 376.515977 
L 262.137208 376.594423 
L 262.710734 375.918437 
L 263.284259 374.611399 
L 264.43131 370.639529 
L 267.298936 359.062482 
L 267.872462 357.399731 
L 268.429442 356.195398 
L 269.002967 355.431161 
L 269.576493 355.171883 
L 270.150018 355.421957 
L 270.723543 356.152375 
L 271.297069 357.306187 
L 272.444119 360.559123 
L 274.723619 368.051074 
L 275.297144 369.527012 
L 275.87067 370.645003 
L 276.444195 371.350339 
L 277.01772 371.621885 
L 277.591246 371.469334 
L 278.164771 370.927795 
L 278.738296 370.051851 
L 279.885347 367.578959 
L 281.995185 362.358802 
L 283.128225 360.244967 
L 283.70175 359.546087 
L 284.275275 359.136662 
L 284.848801 359.031505 
L 285.422326 359.227329 
L 285.995851 359.704379 
L 286.569377 360.427823 
L 287.716428 362.41461 
L 290.010529 366.805403 
L 290.584054 367.625533 
L 291.15758 368.235792 
L 291.731105 368.609228 
L 292.30463 368.734802 
L 292.878156 368.617041 
L 293.451681 368.27449 
L 294.025206 367.737387 
L 295.172257 366.24225 
L 297.415595 362.952057 
L 298.350854 361.944448 
L 298.924379 361.539504 
L 299.497904 361.302759 
L 300.07143 361.248999 
L 300.644955 361.375209 
L 301.21848 361.668654 
L 302.365531 362.663634 
L 305.806683 366.383864 
L 306.380208 366.740972 
L 306.953734 366.958805 
L 307.527259 367.030841 
L 308.100784 366.95928 
L 309.247835 366.433458 
L 310.394886 365.538594 
L 312.650645 363.55858 
L 313.657934 362.925735 
L 314.804985 362.578216 
L 315.952036 362.662123 
L 317.099086 363.133216 
L 318.819662 364.273918 
L 320.540238 365.400299 
L 321.687289 365.873475 
L 322.83434 366.016932 
L 323.98139 365.825811 
L 325.128441 365.367981 
L 328.569593 363.656847 
L 329.716644 363.382207 
L 330.863695 363.367177 
L 332.010745 363.596681 
L 333.731321 364.244905 
L 335.832966 365.072435 
L 336.980016 365.341396 
L 338.127067 365.411706 
L 339.274118 365.283604 
L 340.994694 364.821768 
L 343.86232 363.981151 
L 345.009371 363.828224 
L 346.156422 363.831895 
L 347.876998 364.096291 
L 352.257758 365.016434 
L 353.978334 365.02225 
L 355.69891 364.791935 
L 359.681456 364.133156 
L 361.402032 364.106644 
L 363.696133 364.35124 
L 367.051015 364.79109 
L 369.345116 364.811257 
L 372.124153 364.538538 
L 374.854943 364.286662 
L 377.149045 364.290578 
L 384.987335 364.676358 
L 392.277888 364.378606 
L 401.351838 364.573287 
L 401.925364 364.549651 
L 401.925364 364.549651 
" style="fill:none;stroke:#fe3ea0;stroke-linecap:square;stroke-width:1.5;"/>
   </g>
   <g id="patch_9">
    <path d="M 50.078 387.16 
L 50.078 274.066667 
" style="fill:none;stroke:#08bdf9;stroke-linecap:square;stroke-linejoin:miter;stroke-width:0.8;"/>
   </g>
   <g id="patch_10">
    <path d="M 50.078 387.16 
L 418.68 387.16 
" style="fill:none;stroke:#08bdf9;stroke-linecap:square;stroke-linejoin:miter;stroke-width:0.8;"/>
   </g>
  </g>
 </g>
 <defs>
  <clipPath id="p72ffa84469">
   <rect height="113.093333" width="368.602" x="50.078" y="13.32"/>
  </clipPath>
  <clipPath id="pacf1b48fb9">
   <rect height="113.093333" width="368.602" x="50.078" y="143.693333"/>
  </clipPath>
  <clipPath id="pc056b0909f">
   <rect height="113.093333" width="368.602" x="50.078" y="274.066667"/>
  </clipPath>
 </defs>
</svg>
