<?xml version="1.0" encoding="utf-8" standalone="no"?>
<!DOCTYPE svg PUBLIC "-//W3C//DTD SVG 1.1//EN"
  "http://www.w3.org/Graphics/SVG/1.1/DTD/svg11.dtd">
<!-- Created with matplotlib (http://matplotlib.org/) -->
<svg height="432pt" version="1.1" viewBox="0 0 432 432" width="432pt" xmlns="http://www.w3.org/2000/svg" xmlns:xlink="http://www.w3.org/1999/xlink">
 <defs>
  <style type="text/css">
*{stroke-linecap:butt;stroke-linejoin:round;}
  </style>
 </defs>
 <g id="figure_1">
  <g id="patch_1">
   <path d="M 0 432 
L 432 432 
L 432 0 
L 0 0 
z
" style="fill:#ffffff;"/>
  </g>
  <g id="axes_1">
   <g id="patch_2">
    <path d="M 50.078 126.413333 
L 418.68 126.413333 
L 418.68 13.32 
L 50.078 13.32 
z
" style="fill:#ffffff;"/>
   </g>
   <g id="matplotlib.axis_1">
    <g id="xtick_1">
     <g id="line2d_1">
      <path clip-path="url(#p676cb691e7)" d="M 66.619785 126.413333 
L 66.619785 13.32 
" style="fill:none;stroke:#08bdf9;stroke-dasharray:2.2,2.2;stroke-dashoffset:0;stroke-width:0.8;"/>
     </g>
     <g id="line2d_2">
      <defs>
       <path d="M 0 0 
L 0 3.5 
" id="m6152db74bb" style="stroke:#01769d;stroke-width:0.8;"/>
      </defs>
      <g>
       <use style="fill:#01769d;stroke:#01769d;stroke-width:0.8;" x="66.619785" xlink:href="#m6152db74bb" y="126.413333"/>
      </g>
     </g>
    </g>
    <g id="xtick_2">
     <g id="line2d_3">
      <path clip-path="url(#p676cb691e7)" d="M 108.542701 126.413333 
L 108.542701 13.32 
" style="fill:none;stroke:#08bdf9;stroke-dasharray:2.2,2.2;stroke-dashoffset:0;stroke-width:0.8;"/>
     </g>
     <g id="line2d_4">
      <g>
       <use style="fill:#01769d;stroke:#01769d;stroke-width:0.8;" x="108.542701" xlink:href="#m6152db74bb" y="126.413333"/>
      </g>
     </g>
    </g>
    <g id="xtick_3">
     <g id="line2d_5">
      <path clip-path="url(#p676cb691e7)" d="M 150.465617 126.413333 
L 150.465617 13.32 
" style="fill:none;stroke:#08bdf9;stroke-dasharray:2.2,2.2;stroke-dashoffset:0;stroke-width:0.8;"/>
     </g>
     <g id="line2d_6">
      <g>
       <use style="fill:#01769d;stroke:#01769d;stroke-width:0.8;" x="150.465617" xlink:href="#m6152db74bb" y="126.413333"/>
      </g>
     </g>
    </g>
    <g id="xtick_4">
     <g id="line2d_7">
      <path clip-path="url(#p676cb691e7)" d="M 192.388533 126.413333 
L 192.388533 13.32 
" style="fill:none;stroke:#08bdf9;stroke-dasharray:2.2,2.2;stroke-dashoffset:0;stroke-width:0.8;"/>
     </g>
     <g id="line2d_8">
      <g>
       <use style="fill:#01769d;stroke:#01769d;stroke-width:0.8;" x="192.388533" xlink:href="#m6152db74bb" y="126.413333"/>
      </g>
     </g>
    </g>
    <g id="xtick_5">
     <g id="line2d_9">
      <path clip-path="url(#p676cb691e7)" d="M 234.311449 126.413333 
L 234.311449 13.32 
" style="fill:none;stroke:#08bdf9;stroke-dasharray:2.2,2.2;stroke-dashoffset:0;stroke-width:0.8;"/>
     </g>
     <g id="line2d_10">
      <g>
       <use style="fill:#01769d;stroke:#01769d;stroke-width:0.8;" x="234.311449" xlink:href="#m6152db74bb" y="126.413333"/>
      </g>
     </g>
    </g>
    <g id="xtick_6">
     <g id="line2d_11">
      <path clip-path="url(#p676cb691e7)" d="M 276.234366 126.413333 
L 276.234366 13.32 
" style="fill:none;stroke:#08bdf9;stroke-dasharray:2.2,2.2;stroke-dashoffset:0;stroke-width:0.8;"/>
     </g>
     <g id="line2d_12">
      <g>
       <use style="fill:#01769d;stroke:#01769d;stroke-width:0.8;" x="276.234366" xlink:href="#m6152db74bb" y="126.413333"/>
      </g>
     </g>
    </g>
    <g id="xtick_7">
     <g id="line2d_13">
      <path clip-path="url(#p676cb691e7)" d="M 318.157282 126.413333 
L 318.157282 13.32 
" style="fill:none;stroke:#08bdf9;stroke-dasharray:2.2,2.2;stroke-dashoffset:0;stroke-width:0.8;"/>
     </g>
     <g id="line2d_14">
      <g>
       <use style="fill:#01769d;stroke:#01769d;stroke-width:0.8;" x="318.157282" xlink:href="#m6152db74bb" y="126.413333"/>
      </g>
     </g>
    </g>
    <g id="xtick_8">
     <g id="line2d_15">
      <path clip-path="url(#p676cb691e7)" d="M 360.080198 126.413333 
L 360.080198 13.32 
" style="fill:none;stroke:#08bdf9;stroke-dasharray:2.2,2.2;stroke-dashoffset:0;stroke-width:0.8;"/>
     </g>
     <g id="line2d_16">
      <g>
       <use style="fill:#01769d;stroke:#01769d;stroke-width:0.8;" x="360.080198" xlink:href="#m6152db74bb" y="126.413333"/>
      </g>
     </g>
    </g>
    <g id="xtick_9">
     <g id="line2d_17">
      <path clip-path="url(#p676cb691e7)" d="M 402.003114 126.413333 
L 402.003114 13.32 
" style="fill:none;stroke:#08bdf9;stroke-dasharray:2.2,2.2;stroke-dashoffset:0;stroke-width:0.8;"/>
     </g>
     <g id="line2d_18">
      <g>
       <use style="fill:#01769d;stroke:#01769d;stroke-width:0.8;" x="402.003114" xlink:href="#m6152db74bb" y="126.413333"/>
      </g>
     </g>
    </g>
   </g>
   <g id="matplotlib.axis_2">
    <g id="ytick_1">
     <g id="line2d_19">
      <path clip-path="url(#p676cb691e7)" d="M 50.078 110.257143 
L 418.68 110.257143 
" style="fill:none;stroke:#08bdf9;stroke-dasharray:2.2,2.2;stroke-dashoffset:0;stroke-width:0.8;"/>
     </g>
     <g id="line2d_20">
      <defs>
       <path d="M 0 0 
L -3.5 0 
" id="m68f67086cd" style="stroke:#01769d;stroke-width:0.8;"/>
      </defs>
      <g>
       <use style="fill:#01769d;stroke:#01769d;stroke-width:0.8;" x="50.078" xlink:href="#m68f67086cd" y="110.257143"/>
      </g>
     </g>
     <g id="text_1">
      <!-- 0 -->
      <defs>
       <path d="M 31.78125 66.40625 
Q 24.171875 66.40625 20.328125 58.90625 
Q 16.5 51.421875 16.5 36.375 
Q 16.5 21.390625 20.328125 13.890625 
Q 24.171875 6.390625 31.78125 6.390625 
Q 39.453125 6.390625 43.28125 13.890625 
Q 47.125 21.390625 47.125 36.375 
Q 47.125 51.421875 43.28125 58.90625 
Q 39.453125 66.40625 31.78125 66.40625 
M 31.78125 74.21875 
Q 44.046875 74.21875 50.515625 64.515625 
Q 56.984375 54.828125 56.984375 36.375 
Q 56.984375 17.96875 50.515625 8.265625 
Q 44.046875 -1.421875 31.78125 -1.421875 
Q 19.53125 -1.421875 13.0625 8.265625 
Q 6.59375 17.96875 6.59375 36.375 
Q 6.59375 54.828125 13.0625 64.515625 
Q 19.53125 74.21875 31.78125 74.21875 
" id="DejaVuSans-30"/>
      </defs>
      <g style="fill:#01769d;" transform="translate(36.7155 114.056362)scale(0.1 -0.1)">
       <use xlink:href="#DejaVuSans-30"/>
      </g>
     </g>
    </g>
    <g id="ytick_2">
     <g id="line2d_21">
      <path clip-path="url(#p676cb691e7)" d="M 50.078 83.330159 
L 418.68 83.330159 
" style="fill:none;stroke:#08bdf9;stroke-dasharray:2.2,2.2;stroke-dashoffset:0;stroke-width:0.8;"/>
     </g>
     <g id="line2d_22">
      <g>
       <use style="fill:#01769d;stroke:#01769d;stroke-width:0.8;" x="50.078" xlink:href="#m68f67086cd" y="83.330159"/>
      </g>
     </g>
     <g id="text_2">
      <!-- 1 -->
      <defs>
       <path d="M 12.40625 8.296875 
L 28.515625 8.296875 
L 28.515625 63.921875 
L 10.984375 60.40625 
L 10.984375 69.390625 
L 28.421875 72.90625 
L 38.28125 72.90625 
L 38.28125 8.296875 
L 54.390625 8.296875 
L 54.390625 0 
L 12.40625 0 
z
" id="DejaVuSans-31"/>
      </defs>
      <g style="fill:#01769d;" transform="translate(36.7155 87.129377)scale(0.1 -0.1)">
       <use xlink:href="#DejaVuSans-31"/>
      </g>
     </g>
    </g>
    <g id="ytick_3">
     <g id="line2d_23">
      <path clip-path="url(#p676cb691e7)" d="M 50.078 56.403175 
L 418.68 56.403175 
" style="fill:none;stroke:#08bdf9;stroke-dasharray:2.2,2.2;stroke-dashoffset:0;stroke-width:0.8;"/>
     </g>
     <g id="line2d_24">
      <g>
       <use style="fill:#01769d;stroke:#01769d;stroke-width:0.8;" x="50.078" xlink:href="#m68f67086cd" y="56.403175"/>
      </g>
     </g>
     <g id="text_3">
      <!-- 2 -->
      <defs>
       <path d="M 19.1875 8.296875 
L 53.609375 8.296875 
L 53.609375 0 
L 7.328125 0 
L 7.328125 8.296875 
Q 12.9375 14.109375 22.625 23.890625 
Q 32.328125 33.6875 34.8125 36.53125 
Q 39.546875 41.84375 41.421875 45.53125 
Q 43.3125 49.21875 43.3125 52.78125 
Q 43.3125 58.59375 39.234375 62.25 
Q 35.15625 65.921875 28.609375 65.921875 
Q 23.96875 65.921875 18.8125 64.3125 
Q 13.671875 62.703125 7.8125 59.421875 
L 7.8125 69.390625 
Q 13.765625 71.78125 18.9375 73 
Q 24.125 74.21875 28.421875 74.21875 
Q 39.75 74.21875 46.484375 68.546875 
Q 53.21875 62.890625 53.21875 53.421875 
Q 53.21875 48.921875 51.53125 44.890625 
Q 49.859375 40.875 45.40625 35.40625 
Q 44.1875 33.984375 37.640625 27.21875 
Q 31.109375 20.453125 19.1875 8.296875 
" id="DejaVuSans-32"/>
      </defs>
      <g style="fill:#01769d;" transform="translate(36.7155 60.202393)scale(0.1 -0.1)">
       <use xlink:href="#DejaVuSans-32"/>
      </g>
     </g>
    </g>
    <g id="ytick_4">
     <g id="line2d_25">
      <path clip-path="url(#p676cb691e7)" d="M 50.078 29.47619 
L 418.68 29.47619 
" style="fill:none;stroke:#08bdf9;stroke-dasharray:2.2,2.2;stroke-dashoffset:0;stroke-width:0.8;"/>
     </g>
     <g id="line2d_26">
      <g>
       <use style="fill:#01769d;stroke:#01769d;stroke-width:0.8;" x="50.078" xlink:href="#m68f67086cd" y="29.47619"/>
      </g>
     </g>
     <g id="text_4">
      <!-- 3 -->
      <defs>
       <path d="M 40.578125 39.3125 
Q 47.65625 37.796875 51.625 33 
Q 55.609375 28.21875 55.609375 21.1875 
Q 55.609375 10.40625 48.1875 4.484375 
Q 40.765625 -1.421875 27.09375 -1.421875 
Q 22.515625 -1.421875 17.65625 -0.515625 
Q 12.796875 0.390625 7.625 2.203125 
L 7.625 11.71875 
Q 11.71875 9.328125 16.59375 8.109375 
Q 21.484375 6.890625 26.8125 6.890625 
Q 36.078125 6.890625 40.9375 10.546875 
Q 45.796875 14.203125 45.796875 21.1875 
Q 45.796875 27.640625 41.28125 31.265625 
Q 36.765625 34.90625 28.71875 34.90625 
L 20.21875 34.90625 
L 20.21875 43.015625 
L 29.109375 43.015625 
Q 36.375 43.015625 40.234375 45.921875 
Q 44.09375 48.828125 44.09375 54.296875 
Q 44.09375 59.90625 40.109375 62.90625 
Q 36.140625 65.921875 28.71875 65.921875 
Q 24.65625 65.921875 20.015625 65.03125 
Q 15.375 64.15625 9.8125 62.3125 
L 9.8125 71.09375 
Q 15.4375 72.65625 20.34375 73.4375 
Q 25.25 74.21875 29.59375 74.21875 
Q 40.828125 74.21875 47.359375 69.109375 
Q 53.90625 64.015625 53.90625 55.328125 
Q 53.90625 49.265625 50.4375 45.09375 
Q 46.96875 40.921875 40.578125 39.3125 
" id="DejaVuSans-33"/>
      </defs>
      <g style="fill:#01769d;" transform="translate(36.7155 33.275409)scale(0.1 -0.1)">
       <use xlink:href="#DejaVuSans-33"/>
      </g>
     </g>
    </g>
    <g id="text_5">
     <!-- $V_{gate}\;(V)$ -->
     <defs>
      <path d="M 20.609375 0 
L 7.8125 72.90625 
L 17.484375 72.90625 
L 28.078125 10.203125 
L 63.484375 72.90625 
L 74.21875 72.90625 
L 32.078125 0 
z
" id="DejaVuSans-Oblique-56"/>
      <path d="M 59.625 54.6875 
L 50.296875 6.78125 
Q 47.609375 -7.125 40.015625 -13.953125 
Q 32.421875 -20.796875 19.578125 -20.796875 
Q 14.84375 -20.796875 10.78125 -20.09375 
Q 6.734375 -19.390625 3.21875 -17.921875 
L 4.890625 -9.1875 
Q 8.203125 -11.328125 11.90625 -12.34375 
Q 15.625 -13.375 19.828125 -13.375 
Q 28.375 -13.375 33.859375 -8.703125 
Q 39.359375 -4.046875 41.109375 4.6875 
L 41.890625 8.796875 
Q 38.140625 4.5 33.15625 2.25 
Q 28.171875 0 22.40625 0 
Q 14.109375 0 9.34375 5.484375 
Q 4.59375 10.984375 4.59375 20.609375 
Q 4.59375 28.171875 7.46875 35.421875 
Q 10.359375 42.671875 15.578125 48.296875 
Q 19.046875 52 23.65625 54 
Q 28.265625 56 33.296875 56 
Q 38.8125 56 42.90625 53.4375 
Q 47.015625 50.875 49.03125 46.1875 
L 50.59375 54.6875 
z
M 46.09375 34.625 
Q 46.09375 41.265625 42.96875 44.875 
Q 39.84375 48.484375 34.078125 48.484375 
Q 30.515625 48.484375 27.296875 47.0625 
Q 24.078125 45.65625 21.78125 43.109375 
Q 18.0625 38.921875 15.984375 33.234375 
Q 13.921875 27.546875 13.921875 21.484375 
Q 13.921875 14.75 17.0625 11.125 
Q 20.21875 7.515625 26.125 7.515625 
Q 34.671875 7.515625 40.375 15.25 
Q 46.09375 23 46.09375 34.625 
" id="DejaVuSans-Oblique-67"/>
      <path d="M 53.71875 31.203125 
L 47.609375 0 
L 38.625 0 
L 40.28125 8.296875 
Q 36.328125 3.421875 31.265625 1 
Q 26.21875 -1.421875 20.015625 -1.421875 
Q 13.03125 -1.421875 8.5625 2.84375 
Q 4.109375 7.125 4.109375 13.8125 
Q 4.109375 23.390625 11.75 28.953125 
Q 19.390625 34.515625 32.8125 34.515625 
L 45.3125 34.515625 
L 45.796875 36.921875 
Q 45.90625 37.3125 45.953125 37.765625 
Q 46 38.234375 46 39.203125 
Q 46 43.5625 42.453125 45.96875 
Q 38.921875 48.390625 32.515625 48.390625 
Q 28.125 48.390625 23.5 47.265625 
Q 18.890625 46.140625 14.015625 43.890625 
L 15.578125 52.203125 
Q 20.65625 54.109375 25.515625 55.046875 
Q 30.375 56 34.90625 56 
Q 44.578125 56 49.625 51.796875 
Q 54.6875 47.609375 54.6875 39.59375 
Q 54.6875 37.984375 54.4375 35.8125 
Q 54.203125 33.640625 53.71875 31.203125 
M 44 27.484375 
L 35.015625 27.484375 
Q 23.96875 27.484375 18.671875 24.53125 
Q 13.375 21.578125 13.375 15.375 
Q 13.375 11.078125 16.078125 8.640625 
Q 18.796875 6.203125 23.578125 6.203125 
Q 30.90625 6.203125 36.375 11.453125 
Q 41.84375 16.703125 43.609375 25.484375 
z
" id="DejaVuSans-Oblique-61"/>
      <path d="M 42.28125 54.6875 
L 40.921875 47.703125 
L 23 47.703125 
L 17.1875 18.015625 
Q 16.890625 16.359375 16.75 15.234375 
Q 16.609375 14.109375 16.609375 13.484375 
Q 16.609375 10.359375 18.484375 8.9375 
Q 20.359375 7.515625 24.515625 7.515625 
L 33.59375 7.515625 
L 32.078125 0 
L 23.484375 0 
Q 15.484375 0 11.546875 3.125 
Q 7.625 6.25 7.625 12.59375 
Q 7.625 13.71875 7.765625 15.0625 
Q 7.90625 16.40625 8.203125 18.015625 
L 14.015625 47.703125 
L 6.390625 47.703125 
L 7.8125 54.6875 
L 15.28125 54.6875 
L 18.3125 70.21875 
L 27.296875 70.21875 
L 24.3125 54.6875 
z
" id="DejaVuSans-Oblique-74"/>
      <path d="M 48.09375 32.234375 
Q 48.25 33.015625 48.3125 33.84375 
Q 48.390625 34.671875 48.390625 35.5 
Q 48.390625 41.453125 44.890625 44.921875 
Q 41.40625 48.390625 35.40625 48.390625 
Q 28.71875 48.390625 23.578125 44.15625 
Q 18.453125 39.9375 15.828125 32.171875 
z
M 55.90625 25.203125 
L 14.109375 25.203125 
Q 13.8125 23.34375 13.71875 22.265625 
Q 13.625 21.1875 13.625 20.40625 
Q 13.625 13.625 17.796875 9.90625 
Q 21.96875 6.203125 29.59375 6.203125 
Q 35.453125 6.203125 40.671875 7.515625 
Q 45.90625 8.84375 50.390625 11.375 
L 48.6875 2.484375 
Q 43.84375 0.53125 38.6875 -0.4375 
Q 33.546875 -1.421875 28.21875 -1.421875 
Q 16.84375 -1.421875 10.71875 4.015625 
Q 4.59375 9.46875 4.59375 19.484375 
Q 4.59375 28.03125 7.640625 35.375 
Q 10.6875 42.71875 16.609375 48.484375 
Q 20.40625 52.09375 25.65625 54.046875 
Q 30.90625 56 36.8125 56 
Q 46.09375 56 51.578125 50.4375 
Q 57.078125 44.875 57.078125 35.5 
Q 57.078125 33.25 56.78125 30.6875 
Q 56.5 28.125 55.90625 25.203125 
" id="DejaVuSans-Oblique-65"/>
      <path d="M 31 75.875 
Q 24.46875 64.65625 21.28125 53.65625 
Q 18.109375 42.671875 18.109375 31.390625 
Q 18.109375 20.125 21.3125 9.0625 
Q 24.515625 -2 31 -13.1875 
L 23.1875 -13.1875 
Q 15.875 -1.703125 12.234375 9.375 
Q 8.59375 20.453125 8.59375 31.390625 
Q 8.59375 42.28125 12.203125 53.3125 
Q 15.828125 64.359375 23.1875 75.875 
z
" id="DejaVuSans-28"/>
      <path d="M 8.015625 75.875 
L 15.828125 75.875 
Q 23.140625 64.359375 26.78125 53.3125 
Q 30.421875 42.28125 30.421875 31.390625 
Q 30.421875 20.453125 26.78125 9.375 
Q 23.140625 -1.703125 15.828125 -13.1875 
L 8.015625 -13.1875 
Q 14.5 -2 17.703125 9.0625 
Q 20.90625 20.125 20.90625 31.390625 
Q 20.90625 42.671875 17.703125 53.65625 
Q 14.5 64.65625 8.015625 75.875 
" id="DejaVuSans-29"/>
     </defs>
     <g style="fill:#01769d;" transform="translate(29.6155 90.016667)rotate(-90)scale(0.1 -0.1)">
      <use transform="translate(0 0.125)" xlink:href="#DejaVuSans-Oblique-56"/>
      <use transform="translate(68.408203 -16.28125)scale(0.7)" xlink:href="#DejaVuSans-Oblique-67"/>
      <use transform="translate(112.841797 -16.28125)scale(0.7)" xlink:href="#DejaVuSans-Oblique-61"/>
      <use transform="translate(155.737305 -16.28125)scale(0.7)" xlink:href="#DejaVuSans-Oblique-74"/>
      <use transform="translate(183.183594 -16.28125)scale(0.7)" xlink:href="#DejaVuSans-Oblique-65"/>
      <use transform="translate(256.043511 0.125)" xlink:href="#DejaVuSans-28"/>
      <use transform="translate(295.057183 0.125)" xlink:href="#DejaVuSans-Oblique-56"/>
      <use transform="translate(363.465386 0.125)" xlink:href="#DejaVuSans-29"/>
     </g>
    </g>
   </g>
   <g id="line2d_27">
    <path clip-path="url(#p676cb691e7)" d="M 66.832636 109.982044 
L 71.870513 110.26381 
L 75.253274 110.148385 
L 79.838593 109.992301 
L 84.423912 110.161803 
L 88.436066 110.203892 
L 97.033539 110.09286 
L 103.682474 110.183338 
L 112.853112 110.133777 
L 120.304256 110.159391 
L 128.901729 110.159026 
L 138.072366 110.147105 
L 150.583316 110.024947 
L 150.789788 106.675318 
L 151.512192 96.696506 
L 152.49439 85.439271 
L 152.851077 83.167466 
L 153.047463 82.658223 
L 153.275008 82.427108 
L 153.866629 82.352413 
L 155.012958 82.261265 
L 156.732453 81.859918 
L 160.171442 81.000086 
L 164.183596 80.380631 
L 168.768915 79.723208 
L 169.34208 79.399008 
L 169.698493 78.955412 
L 170.794296 76.769184 
L 175.148709 67.249364 
L 177.441369 62.797983 
L 179.734028 58.777165 
L 182.026688 55.149616 
L 184.319347 51.87691 
L 186.612007 48.923639 
L 188.904666 46.258003 
L 191.197326 43.851511 
L 193.489985 41.678692 
L 196.928974 38.808033 
L 200.367964 36.344295 
L 203.806953 34.229503 
L 207.245942 32.41414 
L 210.684931 30.855741 
L 214.123921 29.517847 
L 218.70924 28.023695 
L 223.294558 26.804549 
L 227.879877 25.809732 
L 233.738285 24.799862 
L 234.339158 24.793157 
L 234.666047 26.745283 
L 236.791826 34.247571 
L 238.51132 39.829912 
L 241.377145 48.241067 
L 243.669804 54.244492 
L 245.962464 59.669014 
L 248.255123 64.56539 
L 250.547783 68.971048 
L 252.840442 72.900288 
L 255.133102 76.314118 
L 256.852596 78.429528 
L 257.998926 79.495972 
L 258.572091 79.854639 
L 259.145256 80.050344 
L 260.86475 80.130183 
L 267.742729 80.354942 
L 274.620707 80.759897 
L 280.352356 81.317528 
L 284.36451 81.957152 
L 287.230334 82.666947 
L 288.949829 83.281879 
L 290.669323 84.166899 
L 291.815653 85.042009 
L 292.961983 86.381638 
L 293.535148 87.353171 
L 294.108313 88.619262 
L 294.681478 90.237132 
L 295.827807 94.517925 
L 298.693632 107.090336 
L 299.839961 110.661852 
L 300.413126 111.833904 
L 300.986291 112.556159 
L 301.559456 112.82788 
L 302.132621 112.679185 
L 302.660822 112.19522 
L 303.233987 111.355051 
L 304.380316 109.043106 
L 306.092453 105.325474 
L 306.665618 104.342057 
L 307.238783 103.594823 
L 307.811948 103.122152 
L 308.385113 102.943879 
L 308.958277 103.06152 
L 309.531442 103.448057 
L 309.992816 103.947302 
L 311.055067 105.616396 
L 313.920891 111.006492 
L 314.494056 111.808627 
L 315.067221 112.417819 
L 315.640386 112.811102 
L 316.213551 112.97809 
L 316.786716 112.928871 
L 317.272854 112.722548 
L 317.734592 112.387758 
L 318.880922 111.159441 
L 321.727869 107.636112 
L 322.301034 107.177407 
L 322.874199 106.870897 
L 323.447364 106.728168 
L 324.020528 106.750961 
L 325.067415 107.179477 
L 326.108519 108.029721 
L 329.520993 111.318903 
L 330.667323 111.849863 
L 331.240488 111.92931 
L 332.299531 111.76081 
L 333.333903 111.235207 
L 334.99365 110.009446 
L 336.643012 108.849827 
L 337.789342 108.357326 
L 338.935672 108.23109 
L 340.082002 108.469929 
L 341.199298 108.981362 
L 344.607161 110.855698 
L 345.753491 111.14893 
L 346.899821 111.154096 
L 348.016285 110.903788 
L 349.73578 110.2008 
L 352.015393 109.27888 
L 353.161723 109.046065 
L 354.308052 109.032669 
L 355.454382 109.224834 
L 357.133485 109.754386 
L 359.235455 110.451045 
L 360.381784 110.680015 
L 361.528114 110.745137 
L 363.247609 110.542207 
L 368.406093 109.470147 
L 370.125587 109.537828 
L 372.418247 109.952098 
L 375.162867 110.428513 
L 376.882361 110.484133 
L 378.601856 110.3312 
L 383.187175 109.741933 
L 384.906669 109.756767 
L 387.772494 110.061622 
L 390.638318 110.329249 
L 392.930978 110.300962 
L 399.808956 109.903012 
L 401.925364 110.023411 
L 401.925364 110.023411 
" style="fill:none;stroke:#fe3ea0;stroke-linecap:square;stroke-width:1.5;"/>
   </g>
   <g id="patch_3">
    <path d="M 50.078 126.413333 
L 50.078 13.32 
" style="fill:none;stroke:#08bdf9;stroke-linecap:square;stroke-linejoin:miter;stroke-width:0.8;"/>
   </g>
   <g id="patch_4">
    <path d="M 50.078 126.413333 
L 418.68 126.413333 
" style="fill:none;stroke:#08bdf9;stroke-linecap:square;stroke-linejoin:miter;stroke-width:0.8;"/>
   </g>
  </g>
  <g id="axes_2">
   <g id="patch_5">
    <path d="M 50.078 256.786667 
L 418.68 256.786667 
L 418.68 143.693333 
L 50.078 143.693333 
z
" style="fill:#ffffff;"/>
   </g>
   <g id="matplotlib.axis_3">
    <g id="xtick_10">
     <g id="line2d_28">
      <path clip-path="url(#p5957e2a521)" d="M 66.619785 256.786667 
L 66.619785 143.693333 
" style="fill:none;stroke:#08bdf9;stroke-dasharray:2.2,2.2;stroke-dashoffset:0;stroke-width:0.8;"/>
     </g>
     <g id="line2d_29">
      <g>
       <use style="fill:#01769d;stroke:#01769d;stroke-width:0.8;" x="66.619785" xlink:href="#m6152db74bb" y="256.786667"/>
      </g>
     </g>
    </g>
    <g id="xtick_11">
     <g id="line2d_30">
      <path clip-path="url(#p5957e2a521)" d="M 108.542701 256.786667 
L 108.542701 143.693333 
" style="fill:none;stroke:#08bdf9;stroke-dasharray:2.2,2.2;stroke-dashoffset:0;stroke-width:0.8;"/>
     </g>
     <g id="line2d_31">
      <g>
       <use style="fill:#01769d;stroke:#01769d;stroke-width:0.8;" x="108.542701" xlink:href="#m6152db74bb" y="256.786667"/>
      </g>
     </g>
    </g>
    <g id="xtick_12">
     <g id="line2d_32">
      <path clip-path="url(#p5957e2a521)" d="M 150.465617 256.786667 
L 150.465617 143.693333 
" style="fill:none;stroke:#08bdf9;stroke-dasharray:2.2,2.2;stroke-dashoffset:0;stroke-width:0.8;"/>
     </g>
     <g id="line2d_33">
      <g>
       <use style="fill:#01769d;stroke:#01769d;stroke-width:0.8;" x="150.465617" xlink:href="#m6152db74bb" y="256.786667"/>
      </g>
     </g>
    </g>
    <g id="xtick_13">
     <g id="line2d_34">
      <path clip-path="url(#p5957e2a521)" d="M 192.388533 256.786667 
L 192.388533 143.693333 
" style="fill:none;stroke:#08bdf9;stroke-dasharray:2.2,2.2;stroke-dashoffset:0;stroke-width:0.8;"/>
     </g>
     <g id="line2d_35">
      <g>
       <use style="fill:#01769d;stroke:#01769d;stroke-width:0.8;" x="192.388533" xlink:href="#m6152db74bb" y="256.786667"/>
      </g>
     </g>
    </g>
    <g id="xtick_14">
     <g id="line2d_36">
      <path clip-path="url(#p5957e2a521)" d="M 234.311449 256.786667 
L 234.311449 143.693333 
" style="fill:none;stroke:#08bdf9;stroke-dasharray:2.2,2.2;stroke-dashoffset:0;stroke-width:0.8;"/>
     </g>
     <g id="line2d_37">
      <g>
       <use style="fill:#01769d;stroke:#01769d;stroke-width:0.8;" x="234.311449" xlink:href="#m6152db74bb" y="256.786667"/>
      </g>
     </g>
    </g>
    <g id="xtick_15">
     <g id="line2d_38">
      <path clip-path="url(#p5957e2a521)" d="M 276.234366 256.786667 
L 276.234366 143.693333 
" style="fill:none;stroke:#08bdf9;stroke-dasharray:2.2,2.2;stroke-dashoffset:0;stroke-width:0.8;"/>
     </g>
     <g id="line2d_39">
      <g>
       <use style="fill:#01769d;stroke:#01769d;stroke-width:0.8;" x="276.234366" xlink:href="#m6152db74bb" y="256.786667"/>
      </g>
     </g>
    </g>
    <g id="xtick_16">
     <g id="line2d_40">
      <path clip-path="url(#p5957e2a521)" d="M 318.157282 256.786667 
L 318.157282 143.693333 
" style="fill:none;stroke:#08bdf9;stroke-dasharray:2.2,2.2;stroke-dashoffset:0;stroke-width:0.8;"/>
     </g>
     <g id="line2d_41">
      <g>
       <use style="fill:#01769d;stroke:#01769d;stroke-width:0.8;" x="318.157282" xlink:href="#m6152db74bb" y="256.786667"/>
      </g>
     </g>
    </g>
    <g id="xtick_17">
     <g id="line2d_42">
      <path clip-path="url(#p5957e2a521)" d="M 360.080198 256.786667 
L 360.080198 143.693333 
" style="fill:none;stroke:#08bdf9;stroke-dasharray:2.2,2.2;stroke-dashoffset:0;stroke-width:0.8;"/>
     </g>
     <g id="line2d_43">
      <g>
       <use style="fill:#01769d;stroke:#01769d;stroke-width:0.8;" x="360.080198" xlink:href="#m6152db74bb" y="256.786667"/>
      </g>
     </g>
    </g>
    <g id="xtick_18">
     <g id="line2d_44">
      <path clip-path="url(#p5957e2a521)" d="M 402.003114 256.786667 
L 402.003114 143.693333 
" style="fill:none;stroke:#08bdf9;stroke-dasharray:2.2,2.2;stroke-dashoffset:0;stroke-width:0.8;"/>
     </g>
     <g id="line2d_45">
      <g>
       <use style="fill:#01769d;stroke:#01769d;stroke-width:0.8;" x="402.003114" xlink:href="#m6152db74bb" y="256.786667"/>
      </g>
     </g>
    </g>
   </g>
   <g id="matplotlib.axis_4">
    <g id="ytick_5">
     <g id="line2d_46">
      <path clip-path="url(#p5957e2a521)" d="M 50.078 249.718333 
L 418.68 249.718333 
" style="fill:none;stroke:#08bdf9;stroke-dasharray:2.2,2.2;stroke-dashoffset:0;stroke-width:0.8;"/>
     </g>
     <g id="line2d_47">
      <g>
       <use style="fill:#01769d;stroke:#01769d;stroke-width:0.8;" x="50.078" xlink:href="#m68f67086cd" y="249.718333"/>
      </g>
     </g>
     <g id="text_6">
      <!-- 0 -->
      <g style="fill:#01769d;" transform="translate(36.7155 253.517552)scale(0.1 -0.1)">
       <use xlink:href="#DejaVuSans-30"/>
      </g>
     </g>
    </g>
    <g id="ytick_6">
     <g id="line2d_48">
      <path clip-path="url(#p5957e2a521)" d="M 50.078 221.445 
L 418.68 221.445 
" style="fill:none;stroke:#08bdf9;stroke-dasharray:2.2,2.2;stroke-dashoffset:0;stroke-width:0.8;"/>
     </g>
     <g id="line2d_49">
      <g>
       <use style="fill:#01769d;stroke:#01769d;stroke-width:0.8;" x="50.078" xlink:href="#m68f67086cd" y="221.445"/>
      </g>
     </g>
     <g id="text_7">
      <!-- 2 -->
      <g style="fill:#01769d;" transform="translate(36.7155 225.244219)scale(0.1 -0.1)">
       <use xlink:href="#DejaVuSans-32"/>
      </g>
     </g>
    </g>
    <g id="ytick_7">
     <g id="line2d_50">
      <path clip-path="url(#p5957e2a521)" d="M 50.078 193.171667 
L 418.68 193.171667 
" style="fill:none;stroke:#08bdf9;stroke-dasharray:2.2,2.2;stroke-dashoffset:0;stroke-width:0.8;"/>
     </g>
     <g id="line2d_51">
      <g>
       <use style="fill:#01769d;stroke:#01769d;stroke-width:0.8;" x="50.078" xlink:href="#m68f67086cd" y="193.171667"/>
      </g>
     </g>
     <g id="text_8">
      <!-- 4 -->
      <defs>
       <path d="M 37.796875 64.3125 
L 12.890625 25.390625 
L 37.796875 25.390625 
z
M 35.203125 72.90625 
L 47.609375 72.90625 
L 47.609375 25.390625 
L 58.015625 25.390625 
L 58.015625 17.1875 
L 47.609375 17.1875 
L 47.609375 0 
L 37.796875 0 
L 37.796875 17.1875 
L 4.890625 17.1875 
L 4.890625 26.703125 
z
" id="DejaVuSans-34"/>
      </defs>
      <g style="fill:#01769d;" transform="translate(36.7155 196.970885)scale(0.1 -0.1)">
       <use xlink:href="#DejaVuSans-34"/>
      </g>
     </g>
    </g>
    <g id="ytick_8">
     <g id="line2d_52">
      <path clip-path="url(#p5957e2a521)" d="M 50.078 164.898333 
L 418.68 164.898333 
" style="fill:none;stroke:#08bdf9;stroke-dasharray:2.2,2.2;stroke-dashoffset:0;stroke-width:0.8;"/>
     </g>
     <g id="line2d_53">
      <g>
       <use style="fill:#01769d;stroke:#01769d;stroke-width:0.8;" x="50.078" xlink:href="#m68f67086cd" y="164.898333"/>
      </g>
     </g>
     <g id="text_9">
      <!-- 6 -->
      <defs>
       <path d="M 33.015625 40.375 
Q 26.375 40.375 22.484375 35.828125 
Q 18.609375 31.296875 18.609375 23.390625 
Q 18.609375 15.53125 22.484375 10.953125 
Q 26.375 6.390625 33.015625 6.390625 
Q 39.65625 6.390625 43.53125 10.953125 
Q 47.40625 15.53125 47.40625 23.390625 
Q 47.40625 31.296875 43.53125 35.828125 
Q 39.65625 40.375 33.015625 40.375 
M 52.59375 71.296875 
L 52.59375 62.3125 
Q 48.875 64.0625 45.09375 64.984375 
Q 41.3125 65.921875 37.59375 65.921875 
Q 27.828125 65.921875 22.671875 59.328125 
Q 17.53125 52.734375 16.796875 39.40625 
Q 19.671875 43.65625 24.015625 45.921875 
Q 28.375 48.1875 33.59375 48.1875 
Q 44.578125 48.1875 50.953125 41.515625 
Q 57.328125 34.859375 57.328125 23.390625 
Q 57.328125 12.15625 50.6875 5.359375 
Q 44.046875 -1.421875 33.015625 -1.421875 
Q 20.359375 -1.421875 13.671875 8.265625 
Q 6.984375 17.96875 6.984375 36.375 
Q 6.984375 53.65625 15.1875 63.9375 
Q 23.390625 74.21875 37.203125 74.21875 
Q 40.921875 74.21875 44.703125 73.484375 
Q 48.484375 72.75 52.59375 71.296875 
" id="DejaVuSans-36"/>
      </defs>
      <g style="fill:#01769d;" transform="translate(36.7155 168.697552)scale(0.1 -0.1)">
       <use xlink:href="#DejaVuSans-36"/>
      </g>
     </g>
    </g>
    <g id="text_10">
     <!-- $V_{drain}\;(V)$ -->
     <defs>
      <path d="M 41.796875 8.203125 
Q 38.1875 3.46875 33.25 1.015625 
Q 28.328125 -1.421875 22.3125 -1.421875 
Q 14.109375 -1.421875 9.34375 4.171875 
Q 4.59375 9.765625 4.59375 19.484375 
Q 4.59375 27.59375 7.46875 34.9375 
Q 10.359375 42.28125 15.828125 48.09375 
Q 19.4375 51.953125 23.96875 53.96875 
Q 28.515625 56 33.5 56 
Q 38.765625 56 42.796875 53.453125 
Q 46.828125 50.921875 49.03125 46.1875 
L 54.890625 75.984375 
L 63.921875 75.984375 
L 49.125 0 
L 40.09375 0 
z
M 13.921875 21.09375 
Q 13.921875 14.015625 17.109375 10.0625 
Q 20.3125 6.109375 25.984375 6.109375 
Q 30.171875 6.109375 33.765625 8.125 
Q 37.359375 10.15625 40.09375 14.109375 
Q 42.96875 18.21875 44.625 23.578125 
Q 46.296875 28.953125 46.296875 34.1875 
Q 46.296875 40.96875 43.09375 44.765625 
Q 39.890625 48.578125 34.28125 48.578125 
Q 30.03125 48.578125 26.359375 46.578125 
Q 22.703125 44.578125 20.125 40.828125 
Q 17.28125 36.765625 15.59375 31.390625 
Q 13.921875 26.03125 13.921875 21.09375 
" id="DejaVuSans-Oblique-64"/>
      <path d="M 44.578125 46.390625 
Q 43.21875 47.125 41.453125 47.515625 
Q 39.703125 47.90625 37.703125 47.90625 
Q 30.515625 47.90625 25.140625 42.453125 
Q 19.78125 37.015625 18.015625 27.875 
L 12.5 0 
L 3.515625 0 
L 14.203125 54.6875 
L 23.1875 54.6875 
L 21.484375 46.1875 
Q 25.046875 50.921875 30 53.453125 
Q 34.96875 56 40.578125 56 
Q 42.046875 56 43.453125 55.828125 
Q 44.875 55.671875 46.296875 55.28125 
z
" id="DejaVuSans-Oblique-72"/>
      <path d="M 18.3125 75.984375 
L 27.296875 75.984375 
L 25.09375 64.59375 
L 16.109375 64.59375 
z
M 14.203125 54.6875 
L 23.1875 54.6875 
L 12.5 0 
L 3.515625 0 
z
" id="DejaVuSans-Oblique-69"/>
      <path d="M 55.71875 33.015625 
L 49.3125 0 
L 40.28125 0 
L 46.6875 32.671875 
Q 47.125 34.96875 47.359375 36.71875 
Q 47.609375 38.484375 47.609375 39.5 
Q 47.609375 43.609375 45.015625 45.890625 
Q 42.4375 48.1875 37.796875 48.1875 
Q 30.5625 48.1875 25.34375 43.375 
Q 20.125 38.578125 18.5 30.328125 
L 12.5 0 
L 3.515625 0 
L 14.109375 54.6875 
L 23.09375 54.6875 
L 21.296875 46.09375 
Q 25.046875 50.828125 30.3125 53.40625 
Q 35.59375 56 41.40625 56 
Q 48.640625 56 52.609375 52.09375 
Q 56.59375 48.1875 56.59375 41.109375 
Q 56.59375 39.359375 56.375 37.359375 
Q 56.15625 35.359375 55.71875 33.015625 
" id="DejaVuSans-Oblique-6e"/>
     </defs>
     <g style="fill:#01769d;" transform="translate(30.635813 221.49)rotate(-90)scale(0.1 -0.1)">
      <use transform="translate(0 0.125)" xlink:href="#DejaVuSans-Oblique-56"/>
      <use transform="translate(68.408203 -16.28125)scale(0.7)" xlink:href="#DejaVuSans-Oblique-64"/>
      <use transform="translate(112.841797 -16.28125)scale(0.7)" xlink:href="#DejaVuSans-Oblique-72"/>
      <use transform="translate(141.621094 -16.28125)scale(0.7)" xlink:href="#DejaVuSans-Oblique-61"/>
      <use transform="translate(184.516602 -16.28125)scale(0.7)" xlink:href="#DejaVuSans-Oblique-69"/>
      <use transform="translate(203.964844 -16.28125)scale(0.7)" xlink:href="#DejaVuSans-Oblique-6e"/>
      <use transform="translate(278.123589 0.125)" xlink:href="#DejaVuSans-28"/>
      <use transform="translate(317.137261 0.125)" xlink:href="#DejaVuSans-Oblique-56"/>
      <use transform="translate(385.545464 0.125)" xlink:href="#DejaVuSans-29"/>
     </g>
    </g>
   </g>
   <g id="line2d_54">
    <path clip-path="url(#p5957e2a521)" d="M 66.832636 184.603292 
L 74.106944 184.768592 
L 82.131252 184.276155 
L 89.009231 184.320982 
L 97.95575 183.957543 
L 104.255639 183.92295 
L 113.999442 183.645151 
L 120.304256 183.549771 
L 128.901729 183.349709 
L 137.499202 183.190643 
L 147.243004 183.037698 
L 150.694872 182.87261 
L 151.512192 181.825338 
L 152.282013 181.165226 
L 152.49439 181.262345 
L 152.681575 181.732615 
L 153.047463 184.100662 
L 155.012958 201.662771 
L 156.159288 209.865826 
L 157.305618 216.584715 
L 158.451948 222.0683 
L 159.598277 226.569188 
L 160.744607 230.323406 
L 162.464102 234.972857 
L 164.183596 238.855925 
L 166.476256 243.354122 
L 168.768915 247.394644 
L 169.698493 248.55207 
L 170.428776 248.91414 
L 171.70972 249.18855 
L 174.00238 249.374223 
L 179.160864 249.497505 
L 194.636315 249.576902 
L 240.80398 249.565383 
L 250.547783 249.363681 
L 254.559937 249.075019 
L 256.279431 248.799116 
L 257.425761 248.487174 
L 258.572091 247.957841 
L 259.718421 247.06118 
L 264.876904 242.183405 
L 267.742729 239.278148 
L 270.608553 236.128098 
L 273.474377 232.594872 
L 275.767037 229.354352 
L 278.059696 225.59315 
L 280.352356 221.150943 
L 282.645015 215.882109 
L 284.36451 211.332463 
L 286.657169 204.474073 
L 289.522994 194.893286 
L 291.815653 187.160049 
L 292.961983 183.891426 
L 293.535148 182.655754 
L 294.108313 181.840846 
L 294.681478 181.558833 
L 295.254642 181.872738 
L 295.827807 182.772777 
L 296.400972 184.184055 
L 297.547302 188.059198 
L 299.266797 194.446497 
L 300.413126 197.635319 
L 300.986291 198.637439 
L 301.559456 199.180471 
L 302.132621 199.258887 
L 302.660822 198.913472 
L 303.233987 198.120306 
L 303.807151 196.965665 
L 304.946123 193.883052 
L 307.238783 187.128609 
L 307.811948 185.851531 
L 308.385113 184.875451 
L 308.958277 184.23735 
L 309.531442 183.936564 
L 309.992816 183.954122 
L 310.481902 184.232006 
L 311.055067 184.827598 
L 312.201397 186.679007 
L 314.494056 191.199997 
L 315.640386 192.804354 
L 316.213551 193.271867 
L 316.786716 193.495439 
L 317.272854 193.484002 
L 317.734592 193.287969 
L 318.307757 192.833263 
L 319.454087 191.381908 
L 322.874199 186.049868 
L 323.447364 185.509028 
L 324.020528 185.155498 
L 324.593693 184.990396 
L 325.067415 185.001861 
L 325.535354 185.151186 
L 326.108519 185.484967 
L 327.254849 186.522217 
L 330.094158 189.553571 
L 331.240488 190.219704 
L 331.813652 190.347132 
L 332.760738 190.227013 
L 333.907068 189.591485 
L 334.99365 188.650916 
L 337.216177 186.514951 
L 338.362507 185.736741 
L 339.508837 185.374772 
L 340.626133 185.451605 
L 341.772462 185.909124 
L 344.033997 187.332884 
L 345.180326 187.960255 
L 346.326656 188.325815 
L 347.472986 188.358061 
L 348.58945 188.071101 
L 349.73578 187.527617 
L 353.161723 185.685736 
L 354.308052 185.40108 
L 355.454382 185.379861 
L 356.56032 185.586695 
L 358.731701 186.346484 
L 360.381784 186.869852 
L 361.528114 187.048228 
L 362.674444 187.026528 
L 363.820774 186.813969 
L 365.540268 186.254836 
L 367.832928 185.483002 
L 369.552422 185.193384 
L 371.271917 185.248715 
L 373.564576 185.676986 
L 375.736032 186.053996 
L 377.455526 186.103885 
L 379.175021 185.895072 
L 384.333505 184.935574 
L 386.052999 184.921027 
L 388.918824 185.206263 
L 391.211483 185.393786 
L 393.504142 185.32265 
L 396.943132 184.863152 
L 399.235791 184.629303 
L 401.352199 184.603235 
L 401.925364 184.624666 
L 401.925364 184.624666 
" style="fill:none;stroke:#fe3ea0;stroke-linecap:square;stroke-width:1.5;"/>
   </g>
   <g id="patch_6">
    <path d="M 50.078 256.786667 
L 50.078 143.693333 
" style="fill:none;stroke:#08bdf9;stroke-linecap:square;stroke-linejoin:miter;stroke-width:0.8;"/>
   </g>
   <g id="patch_7">
    <path d="M 50.078 256.786667 
L 418.68 256.786667 
" style="fill:none;stroke:#08bdf9;stroke-linecap:square;stroke-linejoin:miter;stroke-width:0.8;"/>
   </g>
  </g>
  <g id="axes_3">
   <g id="patch_8">
    <path d="M 50.078 387.16 
L 418.68 387.16 
L 418.68 274.066667 
L 50.078 274.066667 
z
" style="fill:#ffffff;"/>
   </g>
   <g id="matplotlib.axis_5">
    <g id="xtick_19">
     <g id="line2d_55">
      <path clip-path="url(#pd0b2ed127f)" d="M 66.619785 387.16 
L 66.619785 274.066667 
" style="fill:none;stroke:#08bdf9;stroke-dasharray:2.2,2.2;stroke-dashoffset:0;stroke-width:0.8;"/>
     </g>
     <g id="line2d_56">
      <g>
       <use style="fill:#01769d;stroke:#01769d;stroke-width:0.8;" x="66.619785" xlink:href="#m6152db74bb" y="387.16"/>
      </g>
     </g>
     <g id="text_11">
      <!-- 0.0 -->
      <defs>
       <path d="M 10.6875 12.40625 
L 21 12.40625 
L 21 0 
L 10.6875 0 
z
" id="DejaVuSans-2e"/>
      </defs>
      <g style="fill:#01769d;" transform="translate(58.668222 401.758438)scale(0.1 -0.1)">
       <use xlink:href="#DejaVuSans-30"/>
       <use x="63.623047" xlink:href="#DejaVuSans-2e"/>
       <use x="95.410156" xlink:href="#DejaVuSans-30"/>
      </g>
     </g>
    </g>
    <g id="xtick_20">
     <g id="line2d_57">
      <path clip-path="url(#pd0b2ed127f)" d="M 108.542701 387.16 
L 108.542701 274.066667 
" style="fill:none;stroke:#08bdf9;stroke-dasharray:2.2,2.2;stroke-dashoffset:0;stroke-width:0.8;"/>
     </g>
     <g id="line2d_58">
      <g>
       <use style="fill:#01769d;stroke:#01769d;stroke-width:0.8;" x="108.542701" xlink:href="#m6152db74bb" y="387.16"/>
      </g>
     </g>
     <g id="text_12">
      <!-- 0.5 -->
      <defs>
       <path d="M 10.796875 72.90625 
L 49.515625 72.90625 
L 49.515625 64.59375 
L 19.828125 64.59375 
L 19.828125 46.734375 
Q 21.96875 47.46875 24.109375 47.828125 
Q 26.265625 48.1875 28.421875 48.1875 
Q 40.625 48.1875 47.75 41.5 
Q 54.890625 34.8125 54.890625 23.390625 
Q 54.890625 11.625 47.5625 5.09375 
Q 40.234375 -1.421875 26.90625 -1.421875 
Q 22.3125 -1.421875 17.546875 -0.640625 
Q 12.796875 0.140625 7.71875 1.703125 
L 7.71875 11.625 
Q 12.109375 9.234375 16.796875 8.0625 
Q 21.484375 6.890625 26.703125 6.890625 
Q 35.15625 6.890625 40.078125 11.328125 
Q 45.015625 15.765625 45.015625 23.390625 
Q 45.015625 31 40.078125 35.4375 
Q 35.15625 39.890625 26.703125 39.890625 
Q 22.75 39.890625 18.8125 39.015625 
Q 14.890625 38.140625 10.796875 36.28125 
z
" id="DejaVuSans-35"/>
      </defs>
      <g style="fill:#01769d;" transform="translate(100.591138 401.758438)scale(0.1 -0.1)">
       <use xlink:href="#DejaVuSans-30"/>
       <use x="63.623047" xlink:href="#DejaVuSans-2e"/>
       <use x="95.410156" xlink:href="#DejaVuSans-35"/>
      </g>
     </g>
    </g>
    <g id="xtick_21">
     <g id="line2d_59">
      <path clip-path="url(#pd0b2ed127f)" d="M 150.465617 387.16 
L 150.465617 274.066667 
" style="fill:none;stroke:#08bdf9;stroke-dasharray:2.2,2.2;stroke-dashoffset:0;stroke-width:0.8;"/>
     </g>
     <g id="line2d_60">
      <g>
       <use style="fill:#01769d;stroke:#01769d;stroke-width:0.8;" x="150.465617" xlink:href="#m6152db74bb" y="387.16"/>
      </g>
     </g>
     <g id="text_13">
      <!-- 1.0 -->
      <g style="fill:#01769d;" transform="translate(142.514055 401.758438)scale(0.1 -0.1)">
       <use xlink:href="#DejaVuSans-31"/>
       <use x="63.623047" xlink:href="#DejaVuSans-2e"/>
       <use x="95.410156" xlink:href="#DejaVuSans-30"/>
      </g>
     </g>
    </g>
    <g id="xtick_22">
     <g id="line2d_61">
      <path clip-path="url(#pd0b2ed127f)" d="M 192.388533 387.16 
L 192.388533 274.066667 
" style="fill:none;stroke:#08bdf9;stroke-dasharray:2.2,2.2;stroke-dashoffset:0;stroke-width:0.8;"/>
     </g>
     <g id="line2d_62">
      <g>
       <use style="fill:#01769d;stroke:#01769d;stroke-width:0.8;" x="192.388533" xlink:href="#m6152db74bb" y="387.16"/>
      </g>
     </g>
     <g id="text_14">
      <!-- 1.5 -->
      <g style="fill:#01769d;" transform="translate(184.436971 401.758438)scale(0.1 -0.1)">
       <use xlink:href="#DejaVuSans-31"/>
       <use x="63.623047" xlink:href="#DejaVuSans-2e"/>
       <use x="95.410156" xlink:href="#DejaVuSans-35"/>
      </g>
     </g>
    </g>
    <g id="xtick_23">
     <g id="line2d_63">
      <path clip-path="url(#pd0b2ed127f)" d="M 234.311449 387.16 
L 234.311449 274.066667 
" style="fill:none;stroke:#08bdf9;stroke-dasharray:2.2,2.2;stroke-dashoffset:0;stroke-width:0.8;"/>
     </g>
     <g id="line2d_64">
      <g>
       <use style="fill:#01769d;stroke:#01769d;stroke-width:0.8;" x="234.311449" xlink:href="#m6152db74bb" y="387.16"/>
      </g>
     </g>
     <g id="text_15">
      <!-- 2.0 -->
      <g style="fill:#01769d;" transform="translate(226.359887 401.758438)scale(0.1 -0.1)">
       <use xlink:href="#DejaVuSans-32"/>
       <use x="63.623047" xlink:href="#DejaVuSans-2e"/>
       <use x="95.410156" xlink:href="#DejaVuSans-30"/>
      </g>
     </g>
    </g>
    <g id="xtick_24">
     <g id="line2d_65">
      <path clip-path="url(#pd0b2ed127f)" d="M 276.234366 387.16 
L 276.234366 274.066667 
" style="fill:none;stroke:#08bdf9;stroke-dasharray:2.2,2.2;stroke-dashoffset:0;stroke-width:0.8;"/>
     </g>
     <g id="line2d_66">
      <g>
       <use style="fill:#01769d;stroke:#01769d;stroke-width:0.8;" x="276.234366" xlink:href="#m6152db74bb" y="387.16"/>
      </g>
     </g>
     <g id="text_16">
      <!-- 2.5 -->
      <g style="fill:#01769d;" transform="translate(268.282803 401.758438)scale(0.1 -0.1)">
       <use xlink:href="#DejaVuSans-32"/>
       <use x="63.623047" xlink:href="#DejaVuSans-2e"/>
       <use x="95.410156" xlink:href="#DejaVuSans-35"/>
      </g>
     </g>
    </g>
    <g id="xtick_25">
     <g id="line2d_67">
      <path clip-path="url(#pd0b2ed127f)" d="M 318.157282 387.16 
L 318.157282 274.066667 
" style="fill:none;stroke:#08bdf9;stroke-dasharray:2.2,2.2;stroke-dashoffset:0;stroke-width:0.8;"/>
     </g>
     <g id="line2d_68">
      <g>
       <use style="fill:#01769d;stroke:#01769d;stroke-width:0.8;" x="318.157282" xlink:href="#m6152db74bb" y="387.16"/>
      </g>
     </g>
     <g id="text_17">
      <!-- 3.0 -->
      <g style="fill:#01769d;" transform="translate(310.205719 401.758438)scale(0.1 -0.1)">
       <use xlink:href="#DejaVuSans-33"/>
       <use x="63.623047" xlink:href="#DejaVuSans-2e"/>
       <use x="95.410156" xlink:href="#DejaVuSans-30"/>
      </g>
     </g>
    </g>
    <g id="xtick_26">
     <g id="line2d_69">
      <path clip-path="url(#pd0b2ed127f)" d="M 360.080198 387.16 
L 360.080198 274.066667 
" style="fill:none;stroke:#08bdf9;stroke-dasharray:2.2,2.2;stroke-dashoffset:0;stroke-width:0.8;"/>
     </g>
     <g id="line2d_70">
      <g>
       <use style="fill:#01769d;stroke:#01769d;stroke-width:0.8;" x="360.080198" xlink:href="#m6152db74bb" y="387.16"/>
      </g>
     </g>
     <g id="text_18">
      <!-- 3.5 -->
      <g style="fill:#01769d;" transform="translate(352.128635 401.758438)scale(0.1 -0.1)">
       <use xlink:href="#DejaVuSans-33"/>
       <use x="63.623047" xlink:href="#DejaVuSans-2e"/>
       <use x="95.410156" xlink:href="#DejaVuSans-35"/>
      </g>
     </g>
    </g>
    <g id="xtick_27">
     <g id="line2d_71">
      <path clip-path="url(#pd0b2ed127f)" d="M 402.003114 387.16 
L 402.003114 274.066667 
" style="fill:none;stroke:#08bdf9;stroke-dasharray:2.2,2.2;stroke-dashoffset:0;stroke-width:0.8;"/>
     </g>
     <g id="line2d_72">
      <g>
       <use style="fill:#01769d;stroke:#01769d;stroke-width:0.8;" x="402.003114" xlink:href="#m6152db74bb" y="387.16"/>
      </g>
     </g>
     <g id="text_19">
      <!-- 4.0 -->
      <g style="fill:#01769d;" transform="translate(394.051552 401.758438)scale(0.1 -0.1)">
       <use xlink:href="#DejaVuSans-34"/>
       <use x="63.623047" xlink:href="#DejaVuSans-2e"/>
       <use x="95.410156" xlink:href="#DejaVuSans-30"/>
      </g>
     </g>
    </g>
    <g id="text_20">
     <!-- $t\;(\mu s)$ -->
     <defs>
      <path d="M -1.3125 -20.796875 
L 13.375 54.6875 
L 22.40625 54.6875 
L 15.765625 20.65625 
Q 15.578125 19.625 15.421875 18.359375 
Q 15.28125 17.09375 15.28125 15.828125 
Q 15.28125 11.28125 18.140625 8.828125 
Q 21 6.390625 26.3125 6.390625 
Q 33.546875 6.390625 37.984375 10.484375 
Q 42.4375 14.59375 44 22.796875 
L 50.203125 54.6875 
L 59.1875 54.6875 
L 51.03125 12.640625 
Q 50.828125 11.71875 50.75 11.03125 
Q 50.6875 10.359375 50.6875 9.8125 
Q 50.6875 8.296875 51.296875 7.59375 
Q 51.90625 6.890625 53.21875 6.890625 
Q 53.71875 6.890625 54.5625 7.125 
Q 55.421875 7.375 56.984375 8.015625 
L 55.609375 0.78125 
Q 53.46875 -0.296875 51.515625 -0.859375 
Q 49.5625 -1.421875 47.703125 -1.421875 
Q 44.484375 -1.421875 42.65625 0.625 
Q 40.828125 2.6875 40.828125 6.296875 
Q 38.09375 2.390625 34.296875 0.484375 
Q 30.515625 -1.421875 25.390625 -1.421875 
Q 20.84375 -1.421875 17.453125 0.671875 
Q 14.0625 2.78125 12.984375 6.203125 
L 7.71875 -20.796875 
z
" id="DejaVuSans-Oblique-3bc"/>
      <path d="M 50 53.078125 
L 48.296875 44.578125 
Q 44.734375 46.53125 40.765625 47.5 
Q 36.8125 48.484375 32.625 48.484375 
Q 25.53125 48.484375 21.453125 46.0625 
Q 17.390625 43.65625 17.390625 39.5 
Q 17.390625 34.671875 26.859375 32.078125 
Q 27.59375 31.890625 27.9375 31.78125 
L 30.8125 30.90625 
Q 39.796875 28.421875 42.796875 25.6875 
Q 45.796875 22.953125 45.796875 18.21875 
Q 45.796875 9.515625 38.890625 4.046875 
Q 31.984375 -1.421875 20.796875 -1.421875 
Q 16.453125 -1.421875 11.671875 -0.578125 
Q 6.890625 0.25 1.125 2 
L 2.875 11.28125 
Q 7.8125 8.734375 12.59375 7.421875 
Q 17.390625 6.109375 21.78125 6.109375 
Q 28.375 6.109375 32.5 8.9375 
Q 36.625 11.765625 36.625 16.109375 
Q 36.625 20.796875 25.78125 23.6875 
L 24.859375 23.921875 
L 21.78125 24.703125 
Q 14.9375 26.515625 11.765625 29.46875 
Q 8.59375 32.421875 8.59375 37.015625 
Q 8.59375 45.75 15.15625 50.875 
Q 21.734375 56 33.015625 56 
Q 37.453125 56 41.671875 55.265625 
Q 45.90625 54.546875 50 53.078125 
" id="DejaVuSans-Oblique-73"/>
     </defs>
     <g style="fill:#01769d;" transform="translate(221.329 415.438125)scale(0.1 -0.1)">
      <use transform="translate(0 0.125)" xlink:href="#DejaVuSans-Oblique-74"/>
      <use transform="translate(66.26812 0.125)" xlink:href="#DejaVuSans-28"/>
      <use transform="translate(105.281792 0.125)" xlink:href="#DejaVuSans-Oblique-3bc"/>
      <use transform="translate(168.904839 0.125)" xlink:href="#DejaVuSans-Oblique-73"/>
      <use transform="translate(221.004448 0.125)" xlink:href="#DejaVuSans-29"/>
     </g>
    </g>
   </g>
   <g id="matplotlib.axis_6">
    <g id="ytick_9">
     <g id="line2d_73">
      <path clip-path="url(#pd0b2ed127f)" d="M 50.078 387.16 
L 418.68 387.16 
" style="fill:none;stroke:#08bdf9;stroke-dasharray:2.2,2.2;stroke-dashoffset:0;stroke-width:0.8;"/>
     </g>
     <g id="line2d_74">
      <g>
       <use style="fill:#01769d;stroke:#01769d;stroke-width:0.8;" x="50.078" xlink:href="#m68f67086cd" y="387.16"/>
      </g>
     </g>
     <g id="text_21">
      <!-- −0.1 -->
      <defs>
       <path d="M 10.59375 35.5 
L 73.1875 35.5 
L 73.1875 27.203125 
L 10.59375 27.203125 
z
" id="DejaVuSans-2212"/>
      </defs>
      <g style="fill:#01769d;" transform="translate(18.795188 390.959219)scale(0.1 -0.1)">
       <use xlink:href="#DejaVuSans-2212"/>
       <use x="83.789062" xlink:href="#DejaVuSans-30"/>
       <use x="147.412109" xlink:href="#DejaVuSans-2e"/>
       <use x="179.199219" xlink:href="#DejaVuSans-31"/>
      </g>
     </g>
    </g>
    <g id="ytick_10">
     <g id="line2d_75">
      <path clip-path="url(#pd0b2ed127f)" d="M 50.078 364.541333 
L 418.68 364.541333 
" style="fill:none;stroke:#08bdf9;stroke-dasharray:2.2,2.2;stroke-dashoffset:0;stroke-width:0.8;"/>
     </g>
     <g id="line2d_76">
      <g>
       <use style="fill:#01769d;stroke:#01769d;stroke-width:0.8;" x="50.078" xlink:href="#m68f67086cd" y="364.541333"/>
      </g>
     </g>
     <g id="text_22">
      <!-- 0.0 -->
      <g style="fill:#01769d;" transform="translate(27.174875 368.340552)scale(0.1 -0.1)">
       <use xlink:href="#DejaVuSans-30"/>
       <use x="63.623047" xlink:href="#DejaVuSans-2e"/>
       <use x="95.410156" xlink:href="#DejaVuSans-30"/>
      </g>
     </g>
    </g>
    <g id="ytick_11">
     <g id="line2d_77">
      <path clip-path="url(#pd0b2ed127f)" d="M 50.078 341.922667 
L 418.68 341.922667 
" style="fill:none;stroke:#08bdf9;stroke-dasharray:2.2,2.2;stroke-dashoffset:0;stroke-width:0.8;"/>
     </g>
     <g id="line2d_78">
      <g>
       <use style="fill:#01769d;stroke:#01769d;stroke-width:0.8;" x="50.078" xlink:href="#m68f67086cd" y="341.922667"/>
      </g>
     </g>
     <g id="text_23">
      <!-- 0.1 -->
      <g style="fill:#01769d;" transform="translate(27.174875 345.721885)scale(0.1 -0.1)">
       <use xlink:href="#DejaVuSans-30"/>
       <use x="63.623047" xlink:href="#DejaVuSans-2e"/>
       <use x="95.410156" xlink:href="#DejaVuSans-31"/>
      </g>
     </g>
    </g>
    <g id="ytick_12">
     <g id="line2d_79">
      <path clip-path="url(#pd0b2ed127f)" d="M 50.078 319.304 
L 418.68 319.304 
" style="fill:none;stroke:#08bdf9;stroke-dasharray:2.2,2.2;stroke-dashoffset:0;stroke-width:0.8;"/>
     </g>
     <g id="line2d_80">
      <g>
       <use style="fill:#01769d;stroke:#01769d;stroke-width:0.8;" x="50.078" xlink:href="#m68f67086cd" y="319.304"/>
      </g>
     </g>
     <g id="text_24">
      <!-- 0.2 -->
      <g style="fill:#01769d;" transform="translate(27.174875 323.103219)scale(0.1 -0.1)">
       <use xlink:href="#DejaVuSans-30"/>
       <use x="63.623047" xlink:href="#DejaVuSans-2e"/>
       <use x="95.410156" xlink:href="#DejaVuSans-32"/>
      </g>
     </g>
    </g>
    <g id="ytick_13">
     <g id="line2d_81">
      <path clip-path="url(#pd0b2ed127f)" d="M 50.078 296.685333 
L 418.68 296.685333 
" style="fill:none;stroke:#08bdf9;stroke-dasharray:2.2,2.2;stroke-dashoffset:0;stroke-width:0.8;"/>
     </g>
     <g id="line2d_82">
      <g>
       <use style="fill:#01769d;stroke:#01769d;stroke-width:0.8;" x="50.078" xlink:href="#m68f67086cd" y="296.685333"/>
      </g>
     </g>
     <g id="text_25">
      <!-- 0.3 -->
      <g style="fill:#01769d;" transform="translate(27.174875 300.484552)scale(0.1 -0.1)">
       <use xlink:href="#DejaVuSans-30"/>
       <use x="63.623047" xlink:href="#DejaVuSans-2e"/>
       <use x="95.410156" xlink:href="#DejaVuSans-33"/>
      </g>
     </g>
    </g>
    <g id="ytick_14">
     <g id="line2d_83">
      <path clip-path="url(#pd0b2ed127f)" d="M 50.078 274.066667 
L 418.68 274.066667 
" style="fill:none;stroke:#08bdf9;stroke-dasharray:2.2,2.2;stroke-dashoffset:0;stroke-width:0.8;"/>
     </g>
     <g id="line2d_84">
      <g>
       <use style="fill:#01769d;stroke:#01769d;stroke-width:0.8;" x="50.078" xlink:href="#m68f67086cd" y="274.066667"/>
      </g>
     </g>
     <g id="text_26">
      <!-- 0.4 -->
      <g style="fill:#01769d;" transform="translate(27.174875 277.865885)scale(0.1 -0.1)">
       <use xlink:href="#DejaVuSans-30"/>
       <use x="63.623047" xlink:href="#DejaVuSans-2e"/>
       <use x="95.410156" xlink:href="#DejaVuSans-34"/>
      </g>
     </g>
    </g>
    <g id="text_27">
     <!-- $I_{LED}\;(A)$ -->
     <defs>
      <path d="M 16.890625 72.90625 
L 26.8125 72.90625 
L 12.59375 0 
L 2.6875 0 
z
" id="DejaVuSans-Oblique-49"/>
      <path d="M 16.796875 72.90625 
L 26.703125 72.90625 
L 14.203125 8.203125 
L 49.703125 8.203125 
L 48.09375 0 
L 2.6875 0 
z
" id="DejaVuSans-Oblique-4c"/>
      <path d="M 16.890625 72.90625 
L 62.984375 72.90625 
L 61.375 64.59375 
L 25.09375 64.59375 
L 20.90625 43.015625 
L 55.71875 43.015625 
L 54.109375 34.71875 
L 19.28125 34.71875 
L 14.203125 8.296875 
L 51.3125 8.296875 
L 49.703125 0 
L 2.6875 0 
z
" id="DejaVuSans-Oblique-45"/>
      <path d="M 16.890625 72.90625 
L 38.09375 72.90625 
Q 54.984375 72.90625 63.59375 65.75 
Q 72.21875 58.59375 72.21875 44.484375 
Q 72.21875 35.15625 68.9375 26.53125 
Q 65.671875 17.921875 59.90625 12.015625 
Q 54.109375 5.953125 45.171875 2.96875 
Q 36.234375 0 24.03125 0 
L 2.6875 0 
z
M 25.203125 64.796875 
L 14.203125 8.109375 
L 27.09375 8.109375 
Q 43.65625 8.109375 52.734375 17.625 
Q 61.8125 27.15625 61.8125 44.484375 
Q 61.8125 54.984375 55.953125 59.890625 
Q 50.09375 64.796875 37.59375 64.796875 
z
" id="DejaVuSans-Oblique-44"/>
      <path d="M 36.8125 72.90625 
L 48 72.90625 
L 61.53125 0 
L 51.21875 0 
L 48.1875 18.703125 
L 15.375 18.703125 
L 5.078125 0 
L -5.328125 0 
z
M 40.375 63.1875 
L 19.921875 26.90625 
L 46.6875 26.90625 
z
" id="DejaVuSans-Oblique-41"/>
     </defs>
     <g style="fill:#01769d;" transform="translate(12.7155 347.763333)rotate(-90)scale(0.1 -0.1)">
      <use transform="translate(0 0.125)" xlink:href="#DejaVuSans-Oblique-49"/>
      <use transform="translate(29.492188 -16.28125)scale(0.7)" xlink:href="#DejaVuSans-Oblique-4c"/>
      <use transform="translate(68.491211 -16.28125)scale(0.7)" xlink:href="#DejaVuSans-Oblique-45"/>
      <use transform="translate(112.719727 -16.28125)scale(0.7)" xlink:href="#DejaVuSans-Oblique-44"/>
      <use transform="translate(196.414604 0.125)" xlink:href="#DejaVuSans-28"/>
      <use transform="translate(235.428276 0.125)" xlink:href="#DejaVuSans-Oblique-41"/>
      <use transform="translate(303.836479 0.125)" xlink:href="#DejaVuSans-29"/>
     </g>
    </g>
   </g>
   <g id="line2d_85">
    <path clip-path="url(#pd0b2ed127f)" d="M 66.832636 364.493523 
L 70.84479 364.530103 
L 79.838593 364.43595 
L 86.143406 364.50673 
L 95.314044 364.46129 
L 103.109309 364.477423 
L 111.706782 364.484474 
L 122.596915 364.466189 
L 152.49439 364.654005 
L 153.275008 364.71453 
L 153.866629 364.443215 
L 154.439794 363.845565 
L 155.012958 362.970252 
L 156.159288 360.451422 
L 157.305618 357.228336 
L 159.025112 351.555837 
L 160.171442 346.641273 
L 162.464102 334.890795 
L 163.610431 330.6761 
L 165.329926 325.313395 
L 170.428776 310.307991 
L 171.70972 306.957646 
L 173.429215 303.09725 
L 175.148709 299.933238 
L 176.868204 297.359958 
L 178.587699 295.270242 
L 180.307193 293.573525 
L 182.026688 292.195641 
L 184.319347 290.752005 
L 186.612007 289.657171 
L 188.904666 288.826342 
L 191.197326 288.195462 
L 194.636315 287.521403 
L 198.075304 287.074209 
L 202.660623 286.701884 
L 209.538602 286.412998 
L 219.855569 286.247181 
L 240.80398 286.19034 
L 251.694112 286.35281 
L 256.279431 286.599398 
L 258.572091 286.895024 
L 260.291585 287.353618 
L 261.437915 287.855142 
L 263.15741 288.906842 
L 264.876904 290.272647 
L 266.596399 291.90714 
L 268.889058 294.448641 
L 270.608553 296.60092 
L 273.474377 300.640071 
L 275.767037 304.304273 
L 278.059696 308.421232 
L 280.352356 313.096375 
L 282.645015 318.466883 
L 284.36451 323.039722 
L 286.084005 328.139123 
L 287.803499 333.794604 
L 290.096159 342.166634 
L 295.254642 361.926337 
L 296.400972 365.070086 
L 296.974137 366.21903 
L 297.547302 367.054027 
L 298.120467 367.571696 
L 298.693632 367.784531 
L 299.266797 367.71851 
L 299.839961 367.410111 
L 300.413126 366.903265 
L 301.559456 365.490959 
L 303.807151 362.503329 
L 304.946123 361.518064 
L 305.519288 361.248092 
L 306.092453 361.140734 
L 306.665618 361.194954 
L 307.238783 361.401478 
L 308.385113 362.201643 
L 309.992816 363.848913 
L 311.628232 365.453213 
L 312.774562 366.142935 
L 313.347726 366.298253 
L 313.920891 366.321648 
L 315.067221 366.004971 
L 316.213551 365.319499 
L 318.880922 363.38504 
L 320.027252 362.852108 
L 321.154704 362.66601 
L 322.301034 362.831702 
L 323.447364 363.294758 
L 327.254849 365.285131 
L 328.401179 365.513695 
L 329.520993 365.461178 
L 330.667323 365.164754 
L 335.496683 363.466831 
L 336.643012 363.441881 
L 337.789342 363.613674 
L 339.508837 364.123198 
L 341.772462 364.829076 
L 342.918792 365.029834 
L 344.033997 365.071736 
L 345.753491 364.855949 
L 350.295898 363.893634 
L 352.015393 363.877764 
L 353.734888 364.10416 
L 357.70665 364.775079 
L 359.235455 364.814449 
L 361.528114 364.5939 
L 365.540268 364.11286 
L 367.832928 364.160091 
L 374.589702 364.663398 
L 378.028691 364.410292 
L 380.894515 364.247637 
L 383.76034 364.331915 
L 388.918824 364.59149 
L 392.357813 364.471835 
L 396.369967 364.334617 
L 400.382121 364.454447 
L 401.925364 364.512728 
L 401.925364 364.512728 
" style="fill:none;stroke:#fe3ea0;stroke-linecap:square;stroke-width:1.5;"/>
   </g>
   <g id="patch_9">
    <path d="M 50.078 387.16 
L 50.078 274.066667 
" style="fill:none;stroke:#08bdf9;stroke-linecap:square;stroke-linejoin:miter;stroke-width:0.8;"/>
   </g>
   <g id="patch_10">
    <path d="M 50.078 387.16 
L 418.68 387.16 
" style="fill:none;stroke:#08bdf9;stroke-linecap:square;stroke-linejoin:miter;stroke-width:0.8;"/>
   </g>
  </g>
 </g>
 <defs>
  <clipPath id="p676cb691e7">
   <rect height="113.093333" width="368.602" x="50.078" y="13.32"/>
  </clipPath>
  <clipPath id="p5957e2a521">
   <rect height="113.093333" width="368.602" x="50.078" y="143.693333"/>
  </clipPath>
  <clipPath id="pd0b2ed127f">
   <rect height="113.093333" width="368.602" x="50.078" y="274.066667"/>
  </clipPath>
 </defs>
</svg>
