<?xml version="1.0" encoding="utf-8" standalone="no"?>
<!DOCTYPE svg PUBLIC "-//W3C//DTD SVG 1.1//EN"
  "http://www.w3.org/Graphics/SVG/1.1/DTD/svg11.dtd">
<!-- Created with matplotlib (http://matplotlib.org/) -->
<svg height="288pt" version="1.1" viewBox="0 0 432 288" width="432pt" xmlns="http://www.w3.org/2000/svg" xmlns:xlink="http://www.w3.org/1999/xlink">
 <defs>
  <style type="text/css">
*{stroke-linecap:butt;stroke-linejoin:round;}
  </style>
 </defs>
 <g id="figure_1">
  <g id="patch_1">
   <path d="M 0 288 
L 432 288 
L 432 0 
L 0 0 
z
" style="fill:none;opacity:0;"/>
  </g>
  <g id="axes_1">
   <g id="patch_2">
    <path d="M 54 256.32 
L 388.8 256.32 
L 388.8 34.56 
L 54 34.56 
z
" style="fill:#ffffff;"/>
   </g>
   <g id="matplotlib.axis_1">
    <g id="xtick_1">
     <g id="line2d_1">
      <path clip-path="url(#p2822336f64)" d="M 54 256.32 
L 54 34.56 
" style="fill:none;stroke:#08bdf9;stroke-dasharray:2.2,2.2;stroke-dashoffset:0;stroke-width:0.8;"/>
     </g>
     <g id="line2d_2">
      <defs>
       <path d="M 0 0 
L 0 3.5 
" id="m97f003056d" style="stroke:#01769d;stroke-width:0.8;"/>
      </defs>
      <g>
       <use style="fill:#01769d;stroke:#01769d;stroke-width:0.8;" x="54" xlink:href="#m97f003056d" y="256.32"/>
      </g>
     </g>
     <g id="text_1">
      <!-- ${10^{0}}$ -->
      <defs>
       <path d="M 12.40625 8.296875 
L 28.515625 8.296875 
L 28.515625 63.921875 
L 10.984375 60.40625 
L 10.984375 69.390625 
L 28.421875 72.90625 
L 38.28125 72.90625 
L 38.28125 8.296875 
L 54.390625 8.296875 
L 54.390625 0 
L 12.40625 0 
z
" id="DejaVuSans-31"/>
       <path d="M 31.78125 66.40625 
Q 24.171875 66.40625 20.328125 58.90625 
Q 16.5 51.421875 16.5 36.375 
Q 16.5 21.390625 20.328125 13.890625 
Q 24.171875 6.390625 31.78125 6.390625 
Q 39.453125 6.390625 43.28125 13.890625 
Q 47.125 21.390625 47.125 36.375 
Q 47.125 51.421875 43.28125 58.90625 
Q 39.453125 66.40625 31.78125 66.40625 
M 31.78125 74.21875 
Q 44.046875 74.21875 50.515625 64.515625 
Q 56.984375 54.828125 56.984375 36.375 
Q 56.984375 17.96875 50.515625 8.265625 
Q 44.046875 -1.421875 31.78125 -1.421875 
Q 19.53125 -1.421875 13.0625 8.265625 
Q 6.59375 17.96875 6.59375 36.375 
Q 6.59375 54.828125 13.0625 64.515625 
Q 19.53125 74.21875 31.78125 74.21875 
" id="DejaVuSans-30"/>
      </defs>
      <g style="fill:#01769d;" transform="translate(45.2 270.918437)scale(0.1 -0.1)">
       <use transform="translate(0 0.765625)" xlink:href="#DejaVuSans-31"/>
       <use transform="translate(63.623047 0.765625)" xlink:href="#DejaVuSans-30"/>
       <use transform="translate(128.203125 39.046875)scale(0.7)" xlink:href="#DejaVuSans-30"/>
      </g>
     </g>
    </g>
    <g id="xtick_2">
     <g id="line2d_3">
      <path clip-path="url(#p2822336f64)" d="M 193.022691 256.32 
L 193.022691 34.56 
" style="fill:none;stroke:#08bdf9;stroke-dasharray:2.2,2.2;stroke-dashoffset:0;stroke-width:0.8;"/>
     </g>
     <g id="line2d_4">
      <g>
       <use style="fill:#01769d;stroke:#01769d;stroke-width:0.8;" x="193.022691" xlink:href="#m97f003056d" y="256.32"/>
      </g>
     </g>
     <g id="text_2">
      <!-- ${10^{1}}$ -->
      <g style="fill:#01769d;" transform="translate(184.222691 270.918437)scale(0.1 -0.1)">
       <use transform="translate(0 0.684375)" xlink:href="#DejaVuSans-31"/>
       <use transform="translate(63.623047 0.684375)" xlink:href="#DejaVuSans-30"/>
       <use transform="translate(128.203125 38.965625)scale(0.7)" xlink:href="#DejaVuSans-31"/>
      </g>
     </g>
    </g>
    <g id="xtick_3">
     <g id="line2d_5">
      <path clip-path="url(#p2822336f64)" d="M 332.045382 256.32 
L 332.045382 34.56 
" style="fill:none;stroke:#08bdf9;stroke-dasharray:2.2,2.2;stroke-dashoffset:0;stroke-width:0.8;"/>
     </g>
     <g id="line2d_6">
      <g>
       <use style="fill:#01769d;stroke:#01769d;stroke-width:0.8;" x="332.045382" xlink:href="#m97f003056d" y="256.32"/>
      </g>
     </g>
     <g id="text_3">
      <!-- ${10^{2}}$ -->
      <defs>
       <path d="M 19.1875 8.296875 
L 53.609375 8.296875 
L 53.609375 0 
L 7.328125 0 
L 7.328125 8.296875 
Q 12.9375 14.109375 22.625 23.890625 
Q 32.328125 33.6875 34.8125 36.53125 
Q 39.546875 41.84375 41.421875 45.53125 
Q 43.3125 49.21875 43.3125 52.78125 
Q 43.3125 58.59375 39.234375 62.25 
Q 35.15625 65.921875 28.609375 65.921875 
Q 23.96875 65.921875 18.8125 64.3125 
Q 13.671875 62.703125 7.8125 59.421875 
L 7.8125 69.390625 
Q 13.765625 71.78125 18.9375 73 
Q 24.125 74.21875 28.421875 74.21875 
Q 39.75 74.21875 46.484375 68.546875 
Q 53.21875 62.890625 53.21875 53.421875 
Q 53.21875 48.921875 51.53125 44.890625 
Q 49.859375 40.875 45.40625 35.40625 
Q 44.1875 33.984375 37.640625 27.21875 
Q 31.109375 20.453125 19.1875 8.296875 
" id="DejaVuSans-32"/>
      </defs>
      <g style="fill:#01769d;" transform="translate(323.245382 270.918437)scale(0.1 -0.1)">
       <use transform="translate(0 0.765625)" xlink:href="#DejaVuSans-31"/>
       <use transform="translate(63.623047 0.765625)" xlink:href="#DejaVuSans-30"/>
       <use transform="translate(128.203125 39.046875)scale(0.7)" xlink:href="#DejaVuSans-32"/>
      </g>
     </g>
    </g>
    <g id="xtick_4">
     <g id="line2d_7">
      <defs>
       <path d="M 0 0 
L 0 2 
" id="m382e56d781" style="stroke:#01769d;stroke-width:0.6;"/>
      </defs>
      <g>
       <use style="fill:#01769d;stroke:#01769d;stroke-width:0.6;" x="95.85" xlink:href="#m382e56d781" y="256.32"/>
      </g>
     </g>
    </g>
    <g id="xtick_5">
     <g id="line2d_8">
      <g>
       <use style="fill:#01769d;stroke:#01769d;stroke-width:0.6;" x="120.330681" xlink:href="#m382e56d781" y="256.32"/>
      </g>
     </g>
    </g>
    <g id="xtick_6">
     <g id="line2d_9">
      <g>
       <use style="fill:#01769d;stroke:#01769d;stroke-width:0.6;" x="137.7" xlink:href="#m382e56d781" y="256.32"/>
      </g>
     </g>
    </g>
    <g id="xtick_7">
     <g id="line2d_10">
      <g>
       <use style="fill:#01769d;stroke:#01769d;stroke-width:0.6;" x="151.172691" xlink:href="#m382e56d781" y="256.32"/>
      </g>
     </g>
    </g>
    <g id="xtick_8">
     <g id="line2d_11">
      <g>
       <use style="fill:#01769d;stroke:#01769d;stroke-width:0.6;" x="162.180681" xlink:href="#m382e56d781" y="256.32"/>
      </g>
     </g>
    </g>
    <g id="xtick_9">
     <g id="line2d_12">
      <g>
       <use style="fill:#01769d;stroke:#01769d;stroke-width:0.6;" x="171.487803" xlink:href="#m382e56d781" y="256.32"/>
      </g>
     </g>
    </g>
    <g id="xtick_10">
     <g id="line2d_13">
      <g>
       <use style="fill:#01769d;stroke:#01769d;stroke-width:0.6;" x="179.55" xlink:href="#m382e56d781" y="256.32"/>
      </g>
     </g>
    </g>
    <g id="xtick_11">
     <g id="line2d_14">
      <g>
       <use style="fill:#01769d;stroke:#01769d;stroke-width:0.6;" x="186.661361" xlink:href="#m382e56d781" y="256.32"/>
      </g>
     </g>
    </g>
    <g id="xtick_12">
     <g id="line2d_15">
      <g>
       <use style="fill:#01769d;stroke:#01769d;stroke-width:0.6;" x="234.872691" xlink:href="#m382e56d781" y="256.32"/>
      </g>
     </g>
    </g>
    <g id="xtick_13">
     <g id="line2d_16">
      <g>
       <use style="fill:#01769d;stroke:#01769d;stroke-width:0.6;" x="259.353371" xlink:href="#m382e56d781" y="256.32"/>
      </g>
     </g>
    </g>
    <g id="xtick_14">
     <g id="line2d_17">
      <g>
       <use style="fill:#01769d;stroke:#01769d;stroke-width:0.6;" x="276.722691" xlink:href="#m382e56d781" y="256.32"/>
      </g>
     </g>
    </g>
    <g id="xtick_15">
     <g id="line2d_18">
      <g>
       <use style="fill:#01769d;stroke:#01769d;stroke-width:0.6;" x="290.195382" xlink:href="#m382e56d781" y="256.32"/>
      </g>
     </g>
    </g>
    <g id="xtick_16">
     <g id="line2d_19">
      <g>
       <use style="fill:#01769d;stroke:#01769d;stroke-width:0.6;" x="301.203371" xlink:href="#m382e56d781" y="256.32"/>
      </g>
     </g>
    </g>
    <g id="xtick_17">
     <g id="line2d_20">
      <g>
       <use style="fill:#01769d;stroke:#01769d;stroke-width:0.6;" x="310.510494" xlink:href="#m382e56d781" y="256.32"/>
      </g>
     </g>
    </g>
    <g id="xtick_18">
     <g id="line2d_21">
      <g>
       <use style="fill:#01769d;stroke:#01769d;stroke-width:0.6;" x="318.572691" xlink:href="#m382e56d781" y="256.32"/>
      </g>
     </g>
    </g>
    <g id="xtick_19">
     <g id="line2d_22">
      <g>
       <use style="fill:#01769d;stroke:#01769d;stroke-width:0.6;" x="325.684052" xlink:href="#m382e56d781" y="256.32"/>
      </g>
     </g>
    </g>
    <g id="xtick_20">
     <g id="line2d_23">
      <g>
       <use style="fill:#01769d;stroke:#01769d;stroke-width:0.6;" x="373.895382" xlink:href="#m382e56d781" y="256.32"/>
      </g>
     </g>
    </g>
   </g>
   <g id="matplotlib.axis_2">
    <g id="ytick_1">
     <g id="line2d_24">
      <path clip-path="url(#p2822336f64)" d="M 54 197.74235 
L 388.8 197.74235 
" style="fill:none;stroke:#08bdf9;stroke-dasharray:2.2,2.2;stroke-dashoffset:0;stroke-width:0.8;"/>
     </g>
     <g id="line2d_25">
      <defs>
       <path d="M 0 0 
L -3.5 0 
" id="mb373a1162c" style="stroke:#01769d;stroke-width:0.8;"/>
      </defs>
      <g>
       <use style="fill:#01769d;stroke:#01769d;stroke-width:0.8;" x="54" xlink:href="#mb373a1162c" y="197.74235"/>
      </g>
     </g>
     <g id="text_4">
      <!-- ${10^{1}}$ -->
      <g style="fill:#01769d;" transform="translate(29.4 201.541568)scale(0.1 -0.1)">
       <use transform="translate(0 0.684375)" xlink:href="#DejaVuSans-31"/>
       <use transform="translate(63.623047 0.684375)" xlink:href="#DejaVuSans-30"/>
       <use transform="translate(128.203125 38.965625)scale(0.7)" xlink:href="#DejaVuSans-31"/>
      </g>
     </g>
    </g>
    <g id="ytick_2">
     <g id="line2d_26">
      <path clip-path="url(#p2822336f64)" d="M 54 91.371981 
L 388.8 91.371981 
" style="fill:none;stroke:#08bdf9;stroke-dasharray:2.2,2.2;stroke-dashoffset:0;stroke-width:0.8;"/>
     </g>
     <g id="line2d_27">
      <g>
       <use style="fill:#01769d;stroke:#01769d;stroke-width:0.8;" x="54" xlink:href="#mb373a1162c" y="91.371981"/>
      </g>
     </g>
     <g id="text_5">
      <!-- ${10^{2}}$ -->
      <g style="fill:#01769d;" transform="translate(29.4 95.171199)scale(0.1 -0.1)">
       <use transform="translate(0 0.765625)" xlink:href="#DejaVuSans-31"/>
       <use transform="translate(63.623047 0.765625)" xlink:href="#DejaVuSans-30"/>
       <use transform="translate(128.203125 39.046875)scale(0.7)" xlink:href="#DejaVuSans-32"/>
      </g>
     </g>
    </g>
    <g id="ytick_3">
     <g id="line2d_28">
      <defs>
       <path d="M 0 0 
L -2 0 
" id="m09a18ae090" style="stroke:#01769d;stroke-width:0.6;"/>
      </defs>
      <g>
       <use style="fill:#01769d;stroke:#01769d;stroke-width:0.6;" x="54" xlink:href="#m09a18ae090" y="253.361155"/>
      </g>
     </g>
    </g>
    <g id="ytick_4">
     <g id="line2d_29">
      <g>
       <use style="fill:#01769d;stroke:#01769d;stroke-width:0.6;" x="54" xlink:href="#m09a18ae090" y="240.071375"/>
      </g>
     </g>
    </g>
    <g id="ytick_5">
     <g id="line2d_30">
      <g>
       <use style="fill:#01769d;stroke:#01769d;stroke-width:0.6;" x="54" xlink:href="#m09a18ae090" y="229.763021"/>
      </g>
     </g>
    </g>
    <g id="ytick_6">
     <g id="line2d_31">
      <g>
       <use style="fill:#01769d;stroke:#01769d;stroke-width:0.6;" x="54" xlink:href="#m09a18ae090" y="221.340483"/>
      </g>
     </g>
    </g>
    <g id="ytick_7">
     <g id="line2d_32">
      <g>
       <use style="fill:#01769d;stroke:#01769d;stroke-width:0.6;" x="54" xlink:href="#m09a18ae090" y="214.219328"/>
      </g>
     </g>
    </g>
    <g id="ytick_8">
     <g id="line2d_33">
      <g>
       <use style="fill:#01769d;stroke:#01769d;stroke-width:0.6;" x="54" xlink:href="#m09a18ae090" y="208.050704"/>
      </g>
     </g>
    </g>
    <g id="ytick_9">
     <g id="line2d_34">
      <g>
       <use style="fill:#01769d;stroke:#01769d;stroke-width:0.6;" x="54" xlink:href="#m09a18ae090" y="202.609591"/>
      </g>
     </g>
    </g>
    <g id="ytick_10">
     <g id="line2d_35">
      <g>
       <use style="fill:#01769d;stroke:#01769d;stroke-width:0.6;" x="54" xlink:href="#m09a18ae090" y="165.721678"/>
      </g>
     </g>
    </g>
    <g id="ytick_11">
     <g id="line2d_36">
      <g>
       <use style="fill:#01769d;stroke:#01769d;stroke-width:0.6;" x="54" xlink:href="#m09a18ae090" y="146.990786"/>
      </g>
     </g>
    </g>
    <g id="ytick_12">
     <g id="line2d_37">
      <g>
       <use style="fill:#01769d;stroke:#01769d;stroke-width:0.6;" x="54" xlink:href="#m09a18ae090" y="133.701006"/>
      </g>
     </g>
    </g>
    <g id="ytick_13">
     <g id="line2d_38">
      <g>
       <use style="fill:#01769d;stroke:#01769d;stroke-width:0.6;" x="54" xlink:href="#m09a18ae090" y="123.392652"/>
      </g>
     </g>
    </g>
    <g id="ytick_14">
     <g id="line2d_39">
      <g>
       <use style="fill:#01769d;stroke:#01769d;stroke-width:0.6;" x="54" xlink:href="#m09a18ae090" y="114.970114"/>
      </g>
     </g>
    </g>
    <g id="ytick_15">
     <g id="line2d_40">
      <g>
       <use style="fill:#01769d;stroke:#01769d;stroke-width:0.6;" x="54" xlink:href="#m09a18ae090" y="107.848959"/>
      </g>
     </g>
    </g>
    <g id="ytick_16">
     <g id="line2d_41">
      <g>
       <use style="fill:#01769d;stroke:#01769d;stroke-width:0.6;" x="54" xlink:href="#m09a18ae090" y="101.680335"/>
      </g>
     </g>
    </g>
    <g id="ytick_17">
     <g id="line2d_42">
      <g>
       <use style="fill:#01769d;stroke:#01769d;stroke-width:0.6;" x="54" xlink:href="#m09a18ae090" y="96.239222"/>
      </g>
     </g>
    </g>
    <g id="ytick_18">
     <g id="line2d_43">
      <g>
       <use style="fill:#01769d;stroke:#01769d;stroke-width:0.6;" x="54" xlink:href="#m09a18ae090" y="59.351309"/>
      </g>
     </g>
    </g>
    <g id="ytick_19">
     <g id="line2d_44">
      <g>
       <use style="fill:#01769d;stroke:#01769d;stroke-width:0.6;" x="54" xlink:href="#m09a18ae090" y="40.620417"/>
      </g>
     </g>
    </g>
   </g>
   <g id="line2d_45">
    <path clip-path="url(#p2822336f64)" d="M -1 288.398444 
L 54 246.24 
L 95.85 234.630263 
L 120.330681 208.050704 
L 137.7 217.642825 
L 151.172691 197.74235 
L 162.180681 193.339394 
L 171.487803 180.577576 
L 179.55 195.488436 
L 186.661361 182.198657 
L 193.022691 179.011457 
L 198.777213 169.323194 
L 204.030681 173.229413 
L 208.863402 164.580976 
L 213.337803 162.380748 
L 217.503371 155.413324 
L 221.4 169.323194 
L 225.06032 161.318723 
L 228.511361 159.265226 
L 231.775766 152.72153 
L 234.872691 155.413324 
L 237.818484 149.360334 
L 240.627213 147.767208 
L 243.311068 142.587831 
L 245.880681 148.556904 
L 248.345382 143.293128 
L 250.713402 141.89314 
L 252.992042 137.302523 
L 255.187803 139.214357 
L 257.306505 134.870589 
L 259.353371 133.701006 
L 261.333116 129.826012 
L 263.25 140.534334 
L 265.107894 136.070555 
L 266.91032 134.870589 
L 268.660494 130.900387 
L 270.361361 132.560305 
L 272.015623 128.776056 
L 273.625766 127.749435 
L 275.194083 124.325938 
L 276.722691 128.259894 
L 278.213551 124.799748 
L 279.668484 123.856938 
L 281.08918 120.700858 
L 282.477213 122.027152 
L 283.834052 118.989697 
L 285.161068 118.157313 
L 286.459543 115.356694 
L 287.730681 120.700858 
L 288.975607 117.746679 
L 290.195382 116.936201 
L 291.391001 114.206525 
L 292.563402 115.356694 
L 293.713471 112.716201 
L 294.842042 111.988688 
L 295.949904 109.529001 
L 297.037803 112.351012 
L 298.106447 109.872468 
L 299.156505 109.188069 
L 300.188612 106.869501 
L 301.203371 107.848959 
L 302.201358 105.595046 
L 303.183116 104.970765 
L 304.149165 102.849918 
L 305.1 110.218508 
L 306.036093 107.848959 
L 306.957894 107.193685 
L 307.865833 104.970765 
L 308.76032 105.910379 
L 309.641749 103.746957 
L 310.510494 103.146999 
L 311.366917 101.106463 
L 312.211361 103.446004 
L 313.044158 101.392508 
L 313.865623 100.822179 
L 314.676062 98.879716 
L 315.475766 99.702219 
L 316.265017 97.80534 
L 317.044083 97.277379 
L 317.813224 95.475633 
L 318.572691 98.879716 
L 319.322723 97.015645 
L 320.063551 96.496582 
L 320.7954 94.724461 
L 321.518484 95.475633 
L 322.233011 93.741529 
L 322.93918 93.257796 
L 323.637185 91.60354 
L 324.327213 93.499029 
L 325.009444 91.836267 
L 325.684052 91.371981 
L 326.351206 89.78277 
L 327.011068 90.457177 
L 327.663796 88.898608 
L 328.309543 88.462793 
L 328.948457 86.969026 
L 329.580681 90.912315 
L 330.206352 89.338574 
L 330.825607 88.898608 
L 331.438575 87.39091 
L 332.045382 88.031051 
L 332.646151 86.550959 
L 333.241001 86.136641 
L 333.830047 84.715112 
L 334.413402 86.343336 
L 334.991175 84.915529 
L 335.563471 84.515561 
L 336.130393 83.142328 
L 336.692042 83.725865 
L 337.248514 82.375571 
L 337.799904 81.996912 
L 338.346304 80.695529 
L 338.887803 83.142328 
L 339.42449 81.808741 
L 339.956447 81.434682 
L 340.483759 80.148823 
L 341.006505 80.695529 
L 341.524764 79.429804 
L 342.038612 79.074448 
L 342.548123 77.851796 
L 343.053371 79.251784 
L 343.554426 78.024492 
L 344.051358 77.679744 
L 344.544232 76.492991 
L 345.033116 76.997871 
L 345.518072 75.828288 
L 345.999165 75.499489 
L 346.476454 74.366779 
L 346.95 79.074448 
L 347.419861 77.851796 
L 347.886093 77.50833 
L 348.348753 76.325916 
L 348.807894 76.828964 
L 349.26357 75.663596 
L 349.715833 75.335963 
L 350.164733 74.207207 
L 350.61032 75.499489 
L 351.052643 74.366779 
L 351.491749 74.048184 
L 351.927684 72.950093 
L 352.360494 73.417511 
L 352.790224 72.334137 
L 353.216917 72.029211 
L 353.640615 70.977548 
L 354.061361 72.950093 
L 354.479195 71.8775 
L 354.894158 71.575564 
L 355.306288 70.534062 
L 355.715623 70.977548 
L 356.122203 69.949294 
L 356.526062 69.659663 
L 356.927238 68.660018 
L 357.325766 69.804252 
L 357.721681 68.801507 
L 358.115017 68.518961 
L 358.505806 67.543443 
L 358.894083 67.959002 
L 359.279878 66.995115 
L 359.663224 66.723373 
L 360.044152 65.784668 
L 360.422691 68.238133 
L 360.798871 67.268465 
L 361.172723 66.995115 
L 361.544273 66.050929 
L 361.913551 66.453219 
L 362.280585 65.519934 
L 362.6454 65.256708 
L 363.008025 64.347051 
L 363.368484 65.388133 
L 363.726804 64.475911 
L 364.083011 64.21855 
L 364.437128 63.328915 
L 364.78918 63.708091 
L 365.139191 62.82814 
L 365.487185 62.579773 
L 365.833185 61.720857 
L 366.177213 63.328915 
L 366.519292 62.456089 
L 366.859444 62.209709 
L 367.19769 61.357584 
L 367.534052 61.720857 
L 367.86855 60.87762 
L 368.201206 60.639496 
L 368.532038 59.815595 
L 368.861068 60.758405 
L 369.188314 59.932399 
L 369.513796 59.699085 
L 369.837533 58.891643 
L 370.159543 59.235963 
L 370.479845 58.436506 
L 370.798457 58.210608 
L 371.115396 57.428551 
L 371.430681 60.0495 
L 371.744327 59.235963 
L 372.056352 59.006131 
L 372.366774 58.210608 
L 372.675607 58.54987 
L 372.982869 57.762099 
L 373.288575 57.539466 
L 373.59274 56.768596 
L 373.895382 57.650648 
L 374.196513 56.877936 
L 374.496151 56.659515 
L 374.794308 55.903071 
L 375.091001 56.225746 
L 375.386242 55.476315 
L 375.680047 55.264406 
L 375.972429 54.530287 
L 376.263402 55.903071 
L 376.55298 55.158815 
L 376.841175 54.948354 
L 377.128001 54.219201 
L 377.413471 54.530287 
L 377.697598 53.807652 
L 377.980393 53.603245 
L 378.261871 52.894857 
L 378.542042 53.705335 
L 378.820919 52.995393 
L 379.098514 52.79454 
L 379.374838 52.098354 
L 379.649904 52.395436 
L 379.923722 51.705193 
L 380.196304 51.509861 
L 380.467661 50.832629 
L 380.737803 52.594557 
L 381.006743 51.901355 
L 381.27449 51.705193 
L 381.541054 51.025113 
L 381.806447 51.315351 
L 382.070679 50.640944 
L 382.333759 50.450051 
L 382.595697 49.788069 
L 382.856505 50.545399 
L 383.11619 49.882059 
L 383.374764 49.69427 
L 383.632234 49.042955 
L 383.888612 49.320966 
L 384.143905 48.674857 
L 384.398123 48.491902 
L 384.651276 47.857206 
L 384.903371 49.042955 
L 385.154419 48.400696 
L 385.404426 48.218821 
L 385.653403 47.587841 
L 385.901358 47.857206 
L 386.148298 47.231113 
L 386.394232 47.053776 
L 386.639169 46.438406 
L 386.883116 47.142359 
L 387.126081 46.525815 
L 387.368072 46.351161 
L 387.609098 45.745018 
L 387.849165 46.003821 
L 388.088281 45.402189 
L 388.326454 45.231723 
L 388.563691 44.64 
L 388.563691 44.64 
" style="fill:none;stroke:#fe3ea0;stroke-linecap:square;stroke-width:1.5;"/>
   </g>
   <g id="patch_3">
    <path d="M 54 256.32 
L 54 34.56 
" style="fill:none;stroke:#08bdf9;stroke-linecap:square;stroke-linejoin:miter;stroke-width:0.8;"/>
   </g>
   <g id="patch_4">
    <path d="M 54 256.32 
L 388.8 256.32 
" style="fill:none;stroke:#08bdf9;stroke-linecap:square;stroke-linejoin:miter;stroke-width:0.8;"/>
   </g>
  </g>
 </g>
 <defs>
  <clipPath id="p2822336f64">
   <rect height="221.76" width="334.8" x="54" y="34.56"/>
  </clipPath>
 </defs>
</svg>
